<svg width="246" height="66" viewBox="0 0 246 66" fill="none" xmlns="http://www.w3.org/2000/svg">
<path d="M49.3844 33.1387L33.6997 33.7204L33.1249 49.5918L32.55 33.7204L16.8653 33.1387L32.55 32.557L33.1249 16.6855L33.6997 32.557L49.3844 33.1387Z" fill="white"/>
<path d="M8.23383 40.6543C4.1319 40.6543 0.806622 37.2894 0.806622 33.1387C0.806622 28.9879 4.1319 25.623 8.23383 25.623C12.3358 25.623 19.4349 29.191 19.4349 33.3418C19.4349 37.4926 12.3358 40.6543 8.23383 40.6543Z" fill="#EE334E"/>
<ellipse cx="12.2482" cy="12.0137" rx="3.04687" ry="3.01103" transform="rotate(90 12.2482 12.0137)" fill="#EE334E"/>
<ellipse cx="54.0015" cy="53.8574" rx="3.04687" ry="3.01103" transform="rotate(90 54.0015 53.8574)" fill="#FCB131"/>
<ellipse cx="12.2482" cy="54.2637" rx="3.04687" ry="3.01103" transform="rotate(90 12.2482 54.2637)" fill="#0081C8"/>
<ellipse cx="53.6001" cy="12.4199" rx="3.04687" ry="3.01103" transform="rotate(90 53.6001 12.4199)" fill="#00A651"/>
<path d="M32.7235 65.8418C28.6215 65.8418 25.2963 62.4769 25.2963 58.3262C25.2963 54.1754 28.8223 46.3418 32.9242 46.3418C37.0262 46.3418 40.1507 54.1754 40.1507 58.3262C40.1507 62.4769 36.8254 65.8418 32.7235 65.8418Z" fill="#0081C8"/>
<path d="M57.6147 40.6543C53.5127 40.6543 47.056 37.4926 47.056 33.3418C47.056 29.191 53.5127 25.623 57.6147 25.623C61.7166 25.623 65.0419 28.9879 65.0419 33.1387C65.0419 37.2894 61.7166 40.6543 57.6147 40.6543Z" fill="#FCB131"/>
<path d="M32.9242 19.0418C28.8223 19.0418 25.2963 12.5082 25.2963 8.35742C25.2963 4.20665 28.6215 0.841797 32.7235 0.841797C36.8254 0.841797 40.1507 4.20665 40.1507 8.35742C40.1507 12.5082 37.0262 19.0418 32.9242 19.0418Z" fill="#00A651"/>
<path d="M77.7916 46.1968C77.0866 45.7318 76.2766 45.4768 75.4366 45.4768C73.5916 45.4768 72.4216 46.6468 72.4216 48.1918C72.4216 48.8368 72.6166 49.3168 72.9316 49.7218C73.3816 50.2918 73.8466 50.5768 75.4666 51.5518C75.9466 51.8368 76.8166 52.4668 76.8166 53.3218C76.8166 54.1918 75.9916 54.6718 75.2266 54.6718C73.6816 54.6718 72.7666 53.5468 72.4666 53.1718V55.0318C73.2616 55.6318 74.2216 55.9768 75.2266 55.9768C77.0416 55.9768 78.1966 54.7918 78.1966 53.1868C78.1966 52.4518 77.9566 51.8968 77.6416 51.4918C77.2516 50.9668 76.7566 50.6068 76.3216 50.3518C74.3716 49.2118 73.7716 48.8518 73.7716 47.9818C73.7716 47.3368 74.3866 46.7968 75.3916 46.7968C76.0816 46.7968 76.9216 47.0218 77.7916 47.8618V46.1968ZM90.3768 45.4768C86.8818 45.4768 84.9018 48.0418 84.9018 50.7568C84.9018 53.6068 87.0918 55.9768 90.3018 55.9768C93.6468 55.9768 95.8968 53.6518 95.8968 50.7118C95.8968 47.9668 93.7818 45.4768 90.3768 45.4768ZM90.4368 46.8568C93.1068 46.8568 94.3968 49.0018 94.3968 50.6968C94.3968 51.5818 94.0218 52.6918 93.3768 53.3968C92.6718 54.1618 91.4868 54.6118 90.3918 54.6118C88.2468 54.6118 86.4168 53.0818 86.4168 50.7568C86.4168 49.0468 87.5718 46.8568 90.4368 46.8568ZM104.72 45.6118H103.235V55.8418H109.325V54.5068H104.72V45.6118ZM124.734 45.6118H123.279V51.4168C123.279 52.4218 123.189 52.9618 122.994 53.3218C122.724 53.8168 122.004 54.6718 120.354 54.6718C119.169 54.6718 118.494 54.2668 118.059 53.8168C117.534 53.2918 117.414 52.7668 117.414 51.4168V45.6118H115.944V51.4168C115.944 52.1068 115.944 53.2918 116.514 54.1918C117.324 55.4818 118.914 55.9768 120.354 55.9768C121.524 55.9768 122.664 55.6768 123.579 54.8668C124.734 53.8318 124.734 52.4068 124.734 51.4168V45.6118ZM140.004 45.6118H131.454V46.9018H134.964V55.8418H136.434V46.9018H140.004V45.6118ZM148.412 45.6118H146.942V55.8418H148.412V45.6118ZM161.252 45.4768C157.757 45.4768 155.777 48.0418 155.777 50.7568C155.777 53.6068 157.967 55.9768 161.177 55.9768C164.522 55.9768 166.772 53.6518 166.772 50.7118C166.772 47.9668 164.657 45.4768 161.252 45.4768ZM161.312 46.8568C163.982 46.8568 165.272 49.0018 165.272 50.6968C165.272 51.5818 164.897 52.6918 164.252 53.3968C163.547 54.1618 162.362 54.6118 161.267 54.6118C159.122 54.6118 157.292 53.0818 157.292 50.7568C157.292 49.0468 158.447 46.8568 161.312 46.8568ZM183.65 45.6118H182.255V53.5468L175.355 45.6118H174.17V55.8418H175.55V47.9668L182.39 55.8418H183.65V45.6118ZM196.254 46.1968C195.549 45.7318 194.739 45.4768 193.899 45.4768C192.054 45.4768 190.884 46.6468 190.884 48.1918C190.884 48.8368 191.079 49.3168 191.394 49.7218C191.844 50.2918 192.309 50.5768 193.929 51.5518C194.409 51.8368 195.279 52.4668 195.279 53.3218C195.279 54.1918 194.454 54.6718 193.689 54.6718C192.144 54.6718 191.229 53.5468 190.929 53.1718V55.0318C191.724 55.6318 192.684 55.9768 193.689 55.9768C195.504 55.9768 196.659 54.7918 196.659 53.1868C196.659 52.4518 196.419 51.8968 196.104 51.4918C195.714 50.9668 195.219 50.6068 194.784 50.3518C192.834 49.2118 192.234 48.8518 192.234 47.9818C192.234 47.3368 192.849 46.7968 193.854 46.7968C194.544 46.7968 195.384 47.0218 196.254 47.8618V46.1968Z" fill="white"/>
<path d="M74.1582 37.8418V17.8262H77.4121V37.8418H74.1582ZM88.5547 20.5879V37.8418H85.3008V20.5879H79.9824V17.8262H93.8457V20.5879H88.5547ZM106.273 31.4023C106.273 30.1992 105.886 29.1829 105.111 28.3535C104.337 27.515 103.389 27.0957 102.268 27.0957C101.156 27.0957 100.208 27.515 99.4238 28.3535C98.6491 29.1829 98.2617 30.1992 98.2617 31.4023C98.2617 32.6055 98.6491 33.6263 99.4238 34.4648C100.208 35.2943 101.156 35.709 102.268 35.709C103.38 35.709 104.323 35.2943 105.098 34.4648C105.882 33.6263 106.273 32.6055 106.273 31.4023ZM95.1309 31.375C95.1309 30.4271 95.3086 29.5339 95.6641 28.6953C96.0286 27.8477 96.5482 27.0957 97.2227 26.4395C97.888 25.7923 98.6536 25.2956 99.5195 24.9492C100.385 24.6029 101.292 24.4297 102.24 24.4297C103.215 24.4297 104.132 24.6029 104.988 24.9492C105.854 25.2956 106.629 25.806 107.312 26.4805C107.996 27.1458 108.516 27.8978 108.871 28.7363C109.227 29.5749 109.404 30.4544 109.404 31.375C109.404 32.332 109.227 33.2298 108.871 34.0684C108.525 34.9069 108.014 35.6497 107.34 36.2969C106.629 36.9805 105.84 37.4954 104.975 37.8418C104.109 38.1973 103.197 38.375 102.24 38.375C101.301 38.375 100.399 38.1973 99.5332 37.8418C98.6673 37.4954 97.8971 36.9896 97.2227 36.3242C96.5391 35.6497 96.0195 34.8932 95.6641 34.0547C95.3086 33.2161 95.1309 32.3229 95.1309 31.375ZM112.959 37.8418V27.4785H110.689V24.8809H112.959V21.4082C112.959 19.6855 113.314 18.4141 114.025 17.5938C114.745 16.7734 115.857 16.3633 117.361 16.3633C117.68 16.3633 118.008 16.3861 118.346 16.4316C118.683 16.4772 119.025 16.5501 119.371 16.6504V19.3301C119.134 19.1934 118.893 19.0931 118.646 19.0293C118.41 18.9564 118.168 18.9199 117.922 18.9199C117.211 18.9199 116.701 19.1387 116.391 19.5762C116.081 20.0137 115.926 20.752 115.926 21.791V24.8809H119.043V27.4785H115.926V37.8418H112.959ZM121.545 37.8418V27.4785H119.275V24.8809H121.545V21.4082C121.545 19.6855 121.9 18.4141 122.611 17.5938C123.331 16.7734 124.443 16.3633 125.947 16.3633C126.266 16.3633 126.594 16.3861 126.932 16.4316C127.269 16.4772 127.611 16.5501 127.957 16.6504V19.3301C127.72 19.1934 127.479 19.0931 127.232 19.0293C126.995 18.9564 126.754 18.9199 126.508 18.9199C125.797 18.9199 125.286 19.1387 124.977 19.5762C124.667 20.0137 124.512 20.752 124.512 21.791V24.8809H127.629V27.4785H124.512V37.8418H121.545ZM128.23 35.4902L130.691 34.1504C130.874 34.7975 131.211 35.2897 131.703 35.627C132.195 35.9642 132.829 36.1328 133.604 36.1328C134.269 36.1328 134.788 35.9824 135.162 35.6816C135.545 35.3717 135.736 34.9525 135.736 34.4238C135.736 33.722 135.062 33.1204 133.713 32.6191C133.257 32.4551 132.906 32.3184 132.66 32.209C131.275 31.6348 130.304 31.0514 129.748 30.459C129.201 29.8665 128.928 29.1465 128.928 28.2988C128.928 27.1413 129.379 26.2025 130.281 25.4824C131.193 24.7624 132.396 24.4023 133.891 24.4023C134.893 24.4023 135.75 24.5892 136.461 24.9629C137.181 25.3275 137.705 25.8516 138.033 26.5352L135.928 27.9844C135.773 27.5742 135.499 27.2507 135.107 27.0137C134.725 26.7676 134.278 26.6445 133.768 26.6445C133.202 26.6445 132.747 26.7812 132.4 27.0547C132.063 27.319 131.895 27.6745 131.895 28.1211C131.895 28.7956 132.66 29.4108 134.191 29.9668C134.674 30.14 135.048 30.2812 135.312 30.3906C136.507 30.8646 137.359 31.4023 137.869 32.0039C138.389 32.5964 138.648 33.3392 138.648 34.2324C138.648 35.5267 138.179 36.543 137.24 37.2812C136.301 38.0104 135.007 38.375 133.357 38.375C132.09 38.375 131.038 38.138 130.199 37.6641C129.361 37.1901 128.704 36.4655 128.23 35.4902ZM141.643 37.8418V16.6504H144.432V27C145.024 26.1068 145.721 25.4551 146.523 25.0449C147.326 24.6348 148.301 24.4297 149.449 24.4297C150.415 24.4297 151.236 24.5846 151.91 24.8945C152.594 25.1953 153.127 25.6465 153.51 26.248C153.738 26.6035 153.902 27.0182 154.002 27.4922C154.102 27.9661 154.152 28.7956 154.152 29.9805V37.8418H151.158V31.1836C151.158 29.4792 150.949 28.349 150.529 27.793C150.119 27.2279 149.385 26.9453 148.328 26.9453C147.635 26.9453 147.016 27.0729 146.469 27.3281C145.931 27.5833 145.507 27.9434 145.197 28.4082C144.979 28.7181 144.824 29.1191 144.732 29.6113C144.65 30.0944 144.609 30.8691 144.609 31.9355V37.8418H141.643ZM168.289 31.4023C168.289 30.1992 167.902 29.1829 167.127 28.3535C166.352 27.515 165.404 27.0957 164.283 27.0957C163.171 27.0957 162.223 27.515 161.439 28.3535C160.665 29.1829 160.277 30.1992 160.277 31.4023C160.277 32.6055 160.665 33.6263 161.439 34.4648C162.223 35.2943 163.171 35.709 164.283 35.709C165.395 35.709 166.339 35.2943 167.113 34.4648C167.897 33.6263 168.289 32.6055 168.289 31.4023ZM157.146 31.375C157.146 30.4271 157.324 29.5339 157.68 28.6953C158.044 27.8477 158.564 27.0957 159.238 26.4395C159.904 25.7923 160.669 25.2956 161.535 24.9492C162.401 24.6029 163.308 24.4297 164.256 24.4297C165.231 24.4297 166.147 24.6029 167.004 24.9492C167.87 25.2956 168.645 25.806 169.328 26.4805C170.012 27.1458 170.531 27.8978 170.887 28.7363C171.242 29.5749 171.42 30.4544 171.42 31.375C171.42 32.332 171.242 33.2298 170.887 34.0684C170.54 34.9069 170.03 35.6497 169.355 36.2969C168.645 36.9805 167.856 37.4954 166.99 37.8418C166.124 38.1973 165.213 38.375 164.256 38.375C163.317 38.375 162.415 38.1973 161.549 37.8418C160.683 37.4954 159.913 36.9896 159.238 36.3242C158.555 35.6497 158.035 34.8932 157.68 34.0547C157.324 33.2161 157.146 32.3229 157.146 31.375ZM177.531 26.9453C177.85 26.0885 178.27 25.4551 178.789 25.0449C179.318 24.6348 179.969 24.4297 180.744 24.4297C181.163 24.4297 181.574 24.4798 181.975 24.5801C182.385 24.6803 182.786 24.8262 183.178 25.0176L182.111 27.5332C181.856 27.3509 181.578 27.2188 181.277 27.1367C180.986 27.0456 180.658 27 180.293 27C179.309 27 178.602 27.3965 178.174 28.1895C177.745 28.9733 177.531 30.2949 177.531 32.1543V37.8418H174.564V24.8535H177.531V26.9453ZM197.355 31.7988H186.992C187.065 33.0111 187.425 33.959 188.072 34.6426C188.719 35.3171 189.581 35.6543 190.656 35.6543C191.613 35.6543 192.411 35.4538 193.049 35.0527C193.687 34.6517 194.243 34.0046 194.717 33.1113L197.219 34.5059C196.49 35.8092 195.587 36.7799 194.512 37.418C193.436 38.056 192.174 38.375 190.725 38.375C188.646 38.375 186.992 37.7415 185.762 36.4746C184.531 35.2077 183.916 33.5169 183.916 31.4023C183.916 29.3698 184.549 27.7018 185.816 26.3984C187.092 25.0859 188.729 24.4297 190.725 24.4297C192.812 24.4297 194.439 25.0267 195.605 26.2207C196.772 27.4147 197.355 29.0872 197.355 31.2383V31.7988ZM194.279 29.8027C194.161 28.873 193.805 28.1667 193.213 27.6836C192.62 27.1914 191.809 26.9453 190.779 26.9453C189.804 26.9453 189.02 27.1823 188.428 27.6562C187.835 28.1302 187.421 28.8457 187.184 29.8027H194.279Z" fill="white"/>
</svg>
