<svg width="1642" height="436" viewBox="0 0 1642 436" fill="none" xmlns="http://www.w3.org/2000/svg">
<path d="M326.152 216.679L221.104 220.575L217.254 326.873L213.404 220.575L108.356 216.679L213.404 212.783L217.254 106.484L221.104 212.783L326.152 216.679Z" fill="#251A1A"/>
<path d="M50.5476 267.014C23.075 267.014 0.80404 244.478 0.80404 216.679C0.804039 188.879 23.075 166.343 50.5476 166.343C78.0201 166.343 125.566 190.239 125.566 218.039C125.566 245.839 78.0201 267.014 50.5476 267.014Z" fill="#EE334E"/>
<ellipse cx="77.4336" cy="75.1947" rx="20.4063" ry="20.1663" transform="rotate(90 77.4336 75.1947)" fill="#EE334E"/>
<ellipse cx="357.074" cy="355.442" rx="20.4063" ry="20.1663" transform="rotate(90 357.074 355.442)" fill="#FCB131"/>
<ellipse cx="77.4336" cy="358.163" rx="20.4063" ry="20.1663" transform="rotate(90 77.4336 358.163)" fill="#0081C8"/>
<ellipse cx="354.387" cy="77.9156" rx="20.4063" ry="20.1663" transform="rotate(90 354.387 77.9156)" fill="#00A651"/>
<path d="M214.566 435.707C187.094 435.707 164.823 413.171 164.823 385.371C164.823 357.572 188.438 305.106 215.911 305.106C243.383 305.106 264.31 357.572 264.31 385.371C264.31 413.171 242.039 435.707 214.566 435.707Z" fill="#0081C8"/>
<path d="M381.274 267.014C353.801 267.014 310.557 245.839 310.557 218.039C310.557 190.239 353.801 166.343 381.274 166.343C408.746 166.343 431.017 188.879 431.017 216.679C431.017 244.478 408.746 267.014 381.274 267.014Z" fill="#FCB131"/>
<path d="M215.911 122.265C188.438 122.265 164.823 78.5065 164.823 50.7069C164.823 22.9074 187.094 0.371339 214.566 0.371338C242.039 0.371338 264.31 22.9074 264.31 50.7069C264.31 78.5065 243.383 122.265 215.911 122.265Z" fill="#00A651"/>
<path d="M519.815 282.275C514.692 278.896 508.806 277.043 502.702 277.043C489.295 277.043 480.793 285.545 480.793 296.772C480.793 301.459 482.21 304.947 484.499 307.89C487.769 312.032 491.148 314.103 502.92 321.188C506.408 323.259 512.73 327.837 512.73 334.05C512.73 340.372 506.735 343.86 501.176 343.86C489.949 343.86 483.3 335.685 481.12 332.96V346.476C486.897 350.836 493.873 353.343 501.176 353.343C514.365 353.343 522.758 344.732 522.758 333.069C522.758 327.728 521.014 323.695 518.725 320.752C515.891 316.937 512.294 314.321 509.133 312.468C494.963 304.184 490.603 301.568 490.603 295.246C490.603 290.559 495.072 286.635 502.375 286.635C507.389 286.635 513.493 288.27 519.815 294.374V282.275ZM611.267 277.043C585.87 277.043 571.482 295.682 571.482 315.411C571.482 336.121 587.396 353.343 610.722 353.343C635.029 353.343 651.379 336.448 651.379 315.084C651.379 295.137 636.01 277.043 611.267 277.043ZM611.703 287.071C631.105 287.071 640.479 302.658 640.479 314.975C640.479 321.406 637.754 329.472 633.067 334.595C627.944 340.154 619.333 343.424 611.376 343.424C595.789 343.424 582.491 332.306 582.491 315.411C582.491 302.985 590.884 287.071 611.703 287.071ZM715.497 278.024H704.706V352.362H748.96V342.661H715.497V278.024ZM860.929 278.024H850.356V320.207C850.356 327.51 849.702 331.434 848.285 334.05C846.323 337.647 841.091 343.86 829.101 343.86C820.49 343.86 815.585 340.917 812.424 337.647C808.609 333.832 807.737 330.017 807.737 320.207V278.024H797.055V320.207C797.055 325.221 797.055 333.832 801.197 340.372C807.083 349.746 818.637 353.343 829.101 353.343C837.603 353.343 845.887 351.163 852.536 345.277C860.929 337.756 860.929 327.401 860.929 320.207V278.024ZM971.891 278.024H909.761V287.398H935.267V352.362H945.949V287.398H971.891V278.024ZM1032.99 278.024H1022.31V352.362H1032.99V278.024ZM1126.29 277.043C1100.89 277.043 1086.51 295.682 1086.51 315.411C1086.51 336.121 1102.42 353.343 1125.75 353.343C1150.05 353.343 1166.4 336.448 1166.4 315.084C1166.4 295.137 1151.03 277.043 1126.29 277.043ZM1126.73 287.071C1146.13 287.071 1155.5 302.658 1155.5 314.975C1155.5 321.406 1152.78 329.472 1148.09 334.595C1142.97 340.154 1134.36 343.424 1126.4 343.424C1110.81 343.424 1097.52 332.306 1097.52 315.411C1097.52 302.985 1105.91 287.071 1126.73 287.071ZM1289.05 278.024H1278.92V335.685L1228.78 278.024H1220.17V352.362H1230.19V295.137L1279.9 352.362H1289.05V278.024ZM1380.64 282.275C1375.52 278.896 1369.63 277.043 1363.53 277.043C1350.12 277.043 1341.62 285.545 1341.62 296.772C1341.62 301.459 1343.04 304.947 1345.33 307.89C1348.6 312.032 1351.98 314.103 1363.75 321.188C1367.24 323.259 1373.56 327.837 1373.56 334.05C1373.56 340.372 1367.56 343.86 1362 343.86C1350.78 343.86 1344.13 335.685 1341.95 332.96V346.476C1347.72 350.836 1354.7 353.343 1362 353.343C1375.19 353.343 1383.59 344.732 1383.59 333.069C1383.59 327.728 1381.84 323.695 1379.55 320.752C1376.72 316.937 1373.12 314.321 1369.96 312.468C1355.79 304.184 1351.43 301.568 1351.43 295.246C1351.43 290.559 1355.9 286.635 1363.2 286.635C1368.22 286.635 1374.32 288.27 1380.64 294.374V282.275Z" fill="#141414"/>
<path d="M493.121 239.346V96.3772H516.363V239.346H493.121ZM595.953 116.104V239.346H572.71V116.104H534.722V96.3772H633.746V116.104H595.953Z" fill="#0081C8"/>
<path d="M722.515 193.35C722.515 184.756 719.748 177.497 714.214 171.573C708.681 165.583 701.91 162.588 693.902 162.588C685.959 162.588 679.188 165.583 673.589 171.573C668.056 177.497 665.289 184.756 665.289 193.35C665.289 201.944 668.056 209.235 673.589 215.225C679.188 221.149 685.959 224.112 693.902 224.112C701.845 224.112 708.583 221.149 714.117 215.225C719.716 209.235 722.515 201.944 722.515 193.35ZM642.925 193.155C642.925 186.384 644.195 180.003 646.734 174.014C649.338 167.959 653.049 162.588 657.867 157.901C662.619 153.278 668.088 149.73 674.273 147.256C680.458 144.782 686.936 143.545 693.707 143.545C700.673 143.545 707.216 144.782 713.335 147.256C719.52 149.73 725.054 153.376 729.937 158.194C734.82 162.946 738.531 168.317 741.07 174.307C743.609 180.296 744.878 186.579 744.878 193.155C744.878 199.99 743.609 206.403 741.07 212.393C738.596 218.382 734.95 223.688 730.132 228.311C725.054 233.194 719.423 236.872 713.238 239.346C707.053 241.885 700.542 243.155 693.707 243.155C687.001 243.155 680.556 241.885 674.371 239.346C668.186 236.872 662.684 233.259 657.867 228.506C652.984 223.688 649.273 218.285 646.734 212.295C644.195 206.306 642.925 199.925 642.925 193.155ZM770.269 239.346V165.323H754.058V146.768H770.269V121.963C770.269 109.658 772.808 100.576 777.886 94.717C783.029 88.8577 790.972 85.928 801.714 85.928C803.993 85.928 806.337 86.0907 808.746 86.4163C811.154 86.7418 813.596 87.2626 816.07 87.9788V107.119C814.377 106.143 812.652 105.427 810.894 104.971C809.201 104.45 807.476 104.19 805.718 104.19C800.64 104.19 796.994 105.752 794.781 108.877C792.567 112.002 791.46 117.276 791.46 124.698V146.768H813.726V165.323H791.46V239.346H770.269ZM831.597 239.346V165.323H815.386V146.768H831.597V121.963C831.597 109.658 834.136 100.576 839.214 94.717C844.358 88.8577 852.3 85.928 863.042 85.928C865.321 85.928 867.665 86.0907 870.074 86.4163C872.483 86.7418 874.924 87.2626 877.398 87.9788V107.119C875.705 106.143 873.98 105.427 872.222 104.971C870.529 104.45 868.804 104.19 867.046 104.19C861.968 104.19 858.322 105.752 856.109 108.877C853.895 112.002 852.789 117.276 852.789 124.698V146.768H875.054V165.323H852.789V239.346H831.597Z" fill="#00A651"/>
<path d="M879.351 222.549L896.929 212.979C898.231 217.601 900.64 221.117 904.156 223.526C907.671 225.934 912.196 227.139 917.73 227.139C922.483 227.139 926.194 226.065 928.863 223.916C931.597 221.703 932.964 218.708 932.964 214.932C932.964 209.919 928.147 205.622 918.511 202.041C915.256 200.869 912.75 199.893 910.992 199.112C901.096 195.01 894.162 190.843 890.191 186.612C886.285 182.38 884.332 177.237 884.332 171.182C884.332 162.914 887.554 156.208 894 151.065C900.51 145.921 909.104 143.35 919.781 143.35C926.942 143.35 933.062 144.684 938.14 147.354C943.283 149.958 947.027 153.701 949.371 158.584L934.332 168.936C933.225 166.006 931.272 163.695 928.472 162.002C925.738 160.244 922.548 159.365 918.902 159.365C914.865 159.365 911.61 160.342 909.136 162.295C906.727 164.183 905.523 166.722 905.523 169.912C905.523 174.73 910.992 179.125 921.929 183.096C925.38 184.333 928.049 185.342 929.937 186.123C938.466 189.509 944.553 193.35 948.199 197.647C951.91 201.878 953.765 207.184 953.765 213.565C953.765 222.809 950.412 230.069 943.707 235.342C937.001 240.55 927.756 243.155 915.972 243.155C906.923 243.155 899.403 241.462 893.414 238.076C887.424 234.691 882.736 229.515 879.351 222.549ZM975.152 239.346V87.9788H995.074V161.905C999.306 155.524 1004.29 150.869 1010.02 147.94C1015.74 145.01 1022.71 143.545 1030.91 143.545C1037.81 143.545 1043.67 144.652 1048.49 146.865C1053.37 149.014 1057.18 152.237 1059.92 156.533C1061.55 159.073 1062.72 162.035 1063.43 165.42C1064.15 168.806 1064.51 174.73 1064.51 183.194V239.346H1043.12V191.787C1043.12 179.613 1041.62 171.54 1038.63 167.569C1035.7 163.532 1030.46 161.514 1022.91 161.514C1017.96 161.514 1013.53 162.425 1009.62 164.248C1005.78 166.071 1002.76 168.643 1000.54 171.963C998.98 174.177 997.873 177.041 997.222 180.557C996.636 184.007 996.343 189.541 996.343 197.158V239.346H975.152ZM1165.48 193.35C1165.48 184.756 1162.72 177.497 1157.18 171.573C1151.65 165.583 1144.88 162.588 1136.87 162.588C1128.93 162.588 1122.16 165.583 1116.56 171.573C1111.02 177.497 1108.26 184.756 1108.26 193.35C1108.26 201.944 1111.02 209.235 1116.56 215.225C1122.16 221.149 1128.93 224.112 1136.87 224.112C1144.81 224.112 1151.55 221.149 1157.09 215.225C1162.68 209.235 1165.48 201.944 1165.48 193.35ZM1085.89 193.155C1085.89 186.384 1087.16 180.003 1089.7 174.014C1092.31 167.959 1096.02 162.588 1100.84 157.901C1105.59 153.278 1111.06 149.73 1117.24 147.256C1123.43 144.782 1129.9 143.545 1136.68 143.545C1143.64 143.545 1150.18 144.782 1156.3 147.256C1162.49 149.73 1168.02 153.376 1172.91 158.194C1177.79 162.946 1181.5 168.317 1184.04 174.307C1186.58 180.296 1187.85 186.579 1187.85 193.155C1187.85 199.99 1186.58 206.403 1184.04 212.393C1181.56 218.382 1177.92 223.688 1173.1 228.311C1168.02 233.194 1162.39 236.872 1156.21 239.346C1150.02 241.885 1143.51 243.155 1136.68 243.155C1129.97 243.155 1123.52 241.885 1117.34 239.346C1111.15 236.872 1105.65 233.259 1100.84 228.506C1095.95 223.688 1092.24 218.285 1089.7 212.295C1087.16 206.306 1085.89 199.925 1085.89 193.155ZM1231.5 161.514C1233.78 155.394 1236.77 150.869 1240.48 147.94C1244.26 145.01 1248.91 143.545 1254.45 143.545C1257.44 143.545 1260.37 143.903 1263.24 144.619C1266.17 145.336 1269.03 146.377 1271.83 147.744L1264.21 165.713C1262.39 164.411 1260.41 163.467 1258.26 162.881C1256.17 162.23 1253.83 161.905 1251.23 161.905C1244.19 161.905 1239.15 164.737 1236.09 170.401C1233.03 176 1231.5 185.44 1231.5 198.721V239.346H1210.31V146.573H1231.5V161.514ZM1373.1 196.182H1299.08C1299.6 204.841 1302.17 211.612 1306.79 216.494C1311.41 221.312 1317.57 223.721 1325.25 223.721C1332.09 223.721 1337.78 222.289 1342.34 219.424C1346.9 216.559 1350.87 211.937 1354.25 205.557L1372.12 215.518C1366.92 224.828 1360.47 231.761 1352.79 236.319C1345.11 240.876 1336.09 243.155 1325.74 243.155C1310.89 243.155 1299.08 238.63 1290.29 229.58C1281.5 220.531 1277.1 208.454 1277.1 193.35C1277.1 178.832 1281.63 166.918 1290.68 157.608C1299.79 148.233 1311.48 143.545 1325.74 143.545C1340.65 143.545 1352.27 147.809 1360.6 156.338C1368.93 164.867 1373.1 176.813 1373.1 192.178V196.182ZM1351.13 181.924C1350.28 175.283 1347.74 170.238 1343.51 166.787C1339.28 163.272 1333.49 161.514 1326.13 161.514C1319.16 161.514 1313.56 163.207 1309.33 166.592C1305.1 169.977 1302.14 175.088 1300.44 181.924H1351.13Z" fill="#EE334E"/>
</svg>
