<svg width="33" height="31" viewBox="0 0 33 31" fill="none" xmlns="http://www.w3.org/2000/svg">
<path d="M32.5816 4.01999C32.4204 3.83452 32.2213 3.68576 31.9978 3.58374C31.7742 3.48172 31.5314 3.42881 31.2856 3.42856H7.59598L7.26169 1.43314C7.19514 1.03285 6.98876 0.66915 6.67926 0.40673C6.36975 0.144309 5.97719 0.000186804 5.57141 0H1.71428C1.25963 0 0.823591 0.180611 0.502101 0.502101C0.180611 0.823591 0 1.25962 0 1.71428C0 2.16894 0.180611 2.60497 0.502101 2.92646C0.823591 3.24795 1.25963 3.42856 1.71428 3.42856H4.11942L7.30798 22.5668L7.38512 22.7794L7.47769 23.0382L7.68341 23.3451L7.84626 23.5371L8.17712 23.7599L8.36912 23.8714C8.56849 23.9547 8.78218 23.9984 8.99826 23.9999H27.8571C28.3117 23.9999 28.7478 23.8193 29.0692 23.4978C29.3907 23.1763 29.5713 22.7403 29.5713 22.2856C29.5713 21.831 29.3907 21.395 29.0692 21.0735C28.7478 20.752 28.3117 20.5714 27.8571 20.5714H10.452L10.1674 18.8571H29.5713C29.9839 18.8571 30.3826 18.7084 30.6943 18.4383C31.006 18.1681 31.2099 17.7946 31.2685 17.3862L32.9828 5.38627C33.0175 5.14309 32.9996 4.8953 32.9304 4.6596C32.8612 4.42391 32.7423 4.2058 32.5816 4.01999ZM29.3091 6.85712L28.8205 10.2857H22.7142V6.85712H29.3091ZM20.9999 6.85712V10.2857H15.8571V6.85712H20.9999ZM20.9999 12V15.4285H15.8571V12H20.9999ZM14.1428 6.85712V10.2857H8.99997L8.74626 10.3371L8.16683 6.85712H14.1428ZM9.02397 12H14.1428V15.4285H9.59483L9.02397 12ZM22.7142 15.4285V12H28.5736L28.0851 15.4285H22.7142Z" fill="#FCB131"/>
<path d="M11.5714 30.857C12.9916 30.857 14.1428 29.7057 14.1428 28.2855C14.1428 26.8654 12.9916 25.7141 11.5714 25.7141C10.1512 25.7141 8.99998 26.8654 8.99998 28.2855C8.99998 29.7057 10.1512 30.857 11.5714 30.857Z" fill="#FCB131"/>
<path d="M26.9999 30.857C28.4201 30.857 29.5713 29.7057 29.5713 28.2855C29.5713 26.8654 28.4201 25.7141 26.9999 25.7141C25.5798 25.7141 24.4285 26.8654 24.4285 28.2855C24.4285 29.7057 25.5798 30.857 26.9999 30.857Z" fill="#FCB131"/>
</svg>
