<svg width="22" height="34" viewBox="0 0 22 34" fill="none" xmlns="http://www.w3.org/2000/svg">
<path d="M19.5556 0H2.44444C1.79614 0 1.17438 0.255866 0.715962 0.711312C0.257539 1.16676 0 1.78447 0 2.42857V31.5714C0 32.2155 0.257539 32.8332 0.715962 33.2887C1.17438 33.7441 1.79614 34 2.44444 34H19.5556C20.2039 34 20.8256 33.7441 21.284 33.2887C21.7425 32.8332 22 32.2155 22 31.5714V2.42857C22 1.78447 21.7425 1.16676 21.284 0.711312C20.8256 0.255866 20.2039 0 19.5556 0ZM12.2222 31.5714H9.77778V29.1429H12.2222V31.5714ZM2.44444 26.7143V2.42857H19.5556V26.7143H2.44444Z" fill="#9B2CF9"/>
</svg>
