<svg width="43" height="16" viewBox="0 0 43 16" fill="none" xmlns="http://www.w3.org/2000/svg">
<path d="M5.6747 0V15.7851H7.50891V4.36873C7.52409 3.64638 7.49357 2.92379 7.41754 2.20534H7.48741C7.62044 2.55034 7.78841 2.88182 7.9846 3.19165L16.0471 15.777H18.2938V0H16.4677V11.0984C16.4462 11.8736 16.4892 12.6489 16.5792 13.4174H16.5376C16.3367 13.0583 16.1243 12.7059 15.9006 12.3607L8.05447 0.00135352L5.6747 0ZM22.36 0V15.7851H30.6953L30.702 14.0519H24.2346V8.57646H29.8971V6.91367H24.2346V1.67092H30.3096V0.00135352L22.36 0ZM32.1022 0V1.66956H36.6091V15.7837H38.4434V1.66956H43V0H32.1022ZM1.16776 13.5297C1.01351 13.5338 0.861623 13.5689 0.721074 13.633C0.580524 13.6972 0.454155 13.789 0.349421 13.9031C0.124126 14.1346 -0.00141256 14.4462 4.59985e-05 14.7704C-0.00205426 15.013 0.0678115 15.2507 0.200699 15.4532C0.333587 15.6556 0.523451 15.8135 0.745984 15.9066C0.968517 15.9998 1.21359 16.0239 1.44984 15.976C1.68609 15.9281 1.90276 15.8102 2.07211 15.6376C2.30323 15.4117 2.43626 15.0951 2.43626 14.7704C2.43626 14.4456 2.30323 14.129 2.07211 13.9031C1.96161 13.7847 1.82814 13.6905 1.67996 13.6263C1.53179 13.5621 1.37209 13.5292 1.21076 13.5297H1.16911H1.16776Z" fill="#0081C8"/>
</svg>
