<?xml version="1.0" encoding="utf-8"?>
<!-- Generator: Adobe Illustrator 21.0.2, SVG Export Plug-In . SVG Version: 6.00 Build 0)  -->
<svg version="1.1" id="Layer_1" xmlns="http://www.w3.org/2000/svg" xmlns:xlink="http://www.w3.org/1999/xlink" x="0px" y="0px"
	 viewBox="0 0 543 193.4" style="enable-background:new 0 0 543 193.4;" xml:space="preserve">
<style type="text/css">
	.st0{fill:#E6A130;stroke:#333333;stroke-width:0.4;stroke-miterlimit:10;}
	.st1{fill:#FAECD6;}
	.st2{opacity:0.15;enable-background:new    ;}
	.st3{fill:#A67C52;stroke:#333333;stroke-width:0.4;stroke-miterlimit:10;}
	.st4{fill:#665443;stroke:#333333;stroke-width:0.4;stroke-miterlimit:10;}
	.st5{fill:#298CE2;stroke:#333333;stroke-width:0.4;stroke-miterlimit:10;}
	.st6{fill:#ABECD6;stroke:#333333;stroke-width:0.4;stroke-miterlimit:10;}
	.st7{fill:#29ABE2;}
	.st8{fill:#333333;}
	.st9{fill:#E6A130;stroke:#333333;stroke-width:0.42;stroke-miterlimit:10;}
	.st10{fill:#E6A130;}
	.st11{fill:#999999;stroke:#333333;stroke-width:0.4;stroke-miterlimit:10;}
	.st12{fill:#FAECD6;stroke:#333333;stroke-width:0.4;stroke-miterlimit:10;}
	.st13{fill:#E6A130;stroke:#333333;stroke-width:0.41;stroke-miterlimit:10;}
	.st14{fill:#E6A130;stroke:#333333;stroke-width:0.35;stroke-miterlimit:10;}
	.st15{fill:#8C6239;stroke:#333333;stroke-width:0.4;stroke-miterlimit:10;}
	.st16{fill:#FFFFFF;stroke:#333333;stroke-width:0.4;stroke-miterlimit:10;}
	.st17{fill:none;stroke:#333333;stroke-width:0.4;stroke-miterlimit:10;}
	.st18{fill:#FEFEFE;}
	.st19{fill:#29ABE2;stroke:#333333;stroke-width:0.48;stroke-miterlimit:10;}
	.st20{fill:#1A1A1A;stroke:#333333;stroke-width:0.18;stroke-miterlimit:10;}
	.st21{fill:#FFFFFF;}
	.st22{fill:#29ABE2;stroke:#333333;stroke-width:0.26;stroke-miterlimit:10;}
	.st23{fill:#1A1A1A;stroke:#333333;stroke-width:0.1;stroke-miterlimit:10;}
	.st24{opacity:0.3;enable-background:new    ;}
	.st25{fill:#999999;}
	.st26{font-family:'Calibri';}
	.st27{font-size:28.16px;}
	.st28{letter-spacing:2;}
	.st29{fill:#54BCE8;}
</style>
<g>
	<path class="st0" d="M63.5,5.4c0.3-1,1.2-1.6,2.3-1.7c1.8-0.1,10.9,2.6,12.4,2.6s1.9,1.2,2.2,3.2s1.7,11,4,12.1s-0.9,6-6.1,5.8
		S61.9,12.6,61.9,10C61.9,8.3,62.5,6.7,63.5,5.4z"/>
	<path class="st1" d="M80.2,9.9c-0.3-2-0.6-3.2-2.1-3.3S67.5,4,65.8,4c-1.1,0.1-2,0.7-2.6,1.7c-1,1.3-1.5,2.9-1.5,4.5
		c0,1.9,5.9,10.1,11.1,14.5c1.6,0,3.2-0.4,4.6-1c0.9-0.3,1.7-0.8,2.4-1.4c1.2-1.4,1.9-3.1,2-4.8C81.1,15,80.6,12.5,80.2,9.9z"/>
	<path class="st2" d="M81.8,26.2c-5,2.1-5.5-4.1-5.9-7.1c-0.2-1.5-8.5-16,2.3-7.5c1.8,1.4,2.1,4.9,2.8,7s1.6,6.9,3.9,3.1
		C85.1,23.6,83.6,25.4,81.8,26.2z"/>
	<path class="st3" d="M65.9,171.4c0,0-0.6,9.1-0.7,10.1s6.9,1.3,6.9,1.3l1.1-1l0.9,0.1l0.9,0.9c0,0,9.1,1.3,12.4,1.4
		c2.3,0.1,4.7,0,6.9-0.5c0.7-0.2,2.1-2.4,2.3-4.4s-0.6-4.4-1.7-4.6s-9.9-1.6-13.3-5.6C79.5,166.7,67.8,168.4,65.9,171.4z"/>
	<path class="st4" d="M81.4,182.3c-5.3-0.3-5.8-1.7-6.3-1.8c-1-0.1-1.9,0-2.9,0.2c-1.4,0.2-2.9,0.2-4.3-0.1
		c-0.9-0.2-1.8-0.3-2.8-0.3c-0.1,0.9-0.1,0.9-0.1,1.2c0,1,6.9,1.3,6.9,1.3l1.1-1l0.9,0.1l0.9,0.9c0,0,9.1,1.3,12.4,1.4
		c2.3,0.1,4.7,0,6.9-0.5c0.5-0.3,1-0.8,1.2-1.4C91.7,183.5,86.1,182.6,81.4,182.3z"/>
	<path class="st2" d="M96.7,178.1c-0.3,0.1-0.5,0.3-0.7,0.5c-1.9,2.2-5.7,0.5-8.2,0.2c-4.4-0.7-9.1-0.4-13.4-1.6
		c-0.7-0.1-1.3-0.6-1.7-1.2c-0.4-0.6-1-1-1.6-1.2c0.3-1.7,0.9-3.4,1.5-5l0.1-1.3c-3.1,0.5-5.9,1.6-6.8,3c0,0-0.6,9.1-0.7,10.1
		s6.9,1.3,6.9,1.3l1.1-1l0.9,0.1l0.9,0.9c0,0,9.1,1.3,12.4,1.4c2.3,0.1,4.7,0,6.9-0.5c0.7-0.2,2.1-2.4,2.3-4.4
		C96.8,179.1,96.8,178.6,96.7,178.1z"/>
	<path class="st3" d="M27.8,171.1c0,0-2.7,5.5-3.4,6.6s-5,5-5.2,6.8s-0.8,6.5-0.8,6.5s0.1,2.4,6.9,2.2s9.9-2.4,9.9-2.4l2.4-2.4
		l0.1-1.4l1.3-0.6c0,0,2.9-0.1,3.3-1.5s1-10.3,1-10.7s-6.2-4.9-9.4-4.6C31.8,169.7,29.8,170.3,27.8,171.1z"/>
	<path class="st0" d="M106.2,81.8c3.3,1.4,6.9,1.8,10.4,1.2c5.8-1.1,7.6-2,8.9-2.6s4.2-2.7,3.5-4.8s-3.4-10.8-16.4-14.7
		S103.2,79,106.2,81.8z"/>
	<path class="st5" d="M51.4,46.5c0,0-18,5.4-25.3,9.5c-0.9,0.5-7.9,5.3-8.4,5.8c-3.4,3-7.6,8.8-11.2,13.9c-1.3,1.8-1.8,2.4-2.1,3
		c-1.6,2.8,10.1,14.8,24.3,18.6l0.9-5.6c0,0,8.1,13.6,8.5,17s-2.5,1.5-1.6,2.9s-1.3,2.3,1,3.8s-3.3,16.6-3.9,19.2s-0.7,3.1-0.5,4.7
		c0,1,0,1.9-0.2,2.9c-0.2,1.9-0.4,3.8-0.7,5.7c-0.6,4.4-1.2,8.8-2.1,13.1c-0.1,0.8-0.3,1.6-0.5,2.4c-0.3,0.7-0.5,1.4-0.6,2.1
		c-0.3,0.1-1-0.1-1.2,0.1s-0.3,1.3-0.3,1.7c-0.1,0.7-0.2,1.4-0.3,2.1s0,2.5-0.4,3.1c1.2,0.1,4.1-3.2,7.7-1.6l7,3.1l1.5,2.9
		c0,0,1-4.1,1-5.1s-1.3-2.6-1.3-2.6s9.1-15.5,10-17.6s4.3-4.4,3.8-5.4s2.5-4.5,3.1-6.6s5.1-6.9,5.6-7.7s0.9,1.3,1.7,4.2
		s-0.2,7-0.1,8.8s-1.9,0.7-1,3.6s0.2,6.5,0.7,8.8s-0.4,9.1-0.4,9.1l-1.3,4.4l0.5,1.8c0,0,4.8-3,6.1-2.8s9.6-0.9,9.6-0.9l1.9-5.2
		c-1.9-0.3-0.6-6-0.5-7.6s3.2-11.5,3.6-13.8s1.3-5.2,0.2-4.4s-0.2-1.8-0.2-1.8s3.8-25.7,3.8-27.3c0-1.3-0.3-2.6-0.7-3.9
		c0,0,7.3-15.4,7.6-27.2l10.8,6.3c0,0,9.6-14.9,5.8-23.2c-3.2-1.8-15-7.1-15.8-7.3s-4.2-4-5.8-4.8c-2-1-5.2-0.1-12.2-2.1
		S51.4,46.5,51.4,46.5z"/>
	<path class="st6" d="M73.8,79.6c0.7,3.8-1.2,6.9-4.4,6.9s-6.3-3-7-6.8s1.2-6.9,4.4-6.9C69.9,72.8,73,75.8,73.8,79.6z"/>
	<path class="st7" d="M68.7,85.1c-0.6,0-1.2-0.5-1.7-1.5l-0.2-0.4l0.4,0.1c0.2,0,0.3,0.1,0.5,0.1c0.1,0,0.3,0,0.4,0
		c0.8-0.2,1.5-0.5,2-1.1l0.4-0.5l-0.1,0.6C70.2,84.1,69.6,85.1,68.7,85.1L68.7,85.1z"/>
	<path class="st8" d="M70.3,82.3c-0.2,1.5-0.8,2.6-1.6,2.6l0,0c-0.5,0-1.1-0.5-1.5-1.4c0.3,0.1,0.7,0.1,1,0
		C69,83.3,69.7,82.9,70.3,82.3 M70.9,81.1L70,82c-0.5,0.5-1.2,0.9-1.9,1.1c-0.1,0-0.3,0-0.4,0c-0.2,0-0.3,0-0.5-0.1l-0.9-0.2
		l0.4,0.8c0.5,1,1.2,1.6,1.9,1.6l0,0c1,0,1.7-1.1,2-2.9L70.9,81.1L70.9,81.1z"/>
	<path class="st7" d="M67.6,83.1c-0.3,0-0.6,0-0.9-0.1h-0.1v-0.1c-0.1-0.3-0.2-0.6-0.3-0.9l-0.1-0.4l0.4,0.2
		c0.3,0.1,0.6,0.2,0.9,0.2c0.2,0,0.4,0,0.6-0.1c0.8-0.2,1.6-0.7,2.1-1.3l0.3-0.4v0.5c0,0.3,0,0.6,0,0.9v0.1l-0.1,0.1
		c-0.6,0.8-1.5,1.3-2.4,1.4C68,83.1,67.8,83.1,67.6,83.1z"/>
	<path class="st8" d="M70.4,80.6c0,0.3,0,0.6,0,0.9c-0.6,0.7-1.4,1.2-2.3,1.4c-0.2,0-0.3,0-0.5,0.1c-0.3,0-0.6,0-0.8-0.1
		c-0.1-0.3-0.2-0.6-0.3-0.9c0.3,0.1,0.7,0.2,1,0.2c0.2,0,0.4,0,0.7-0.1C69.1,81.8,69.9,81.3,70.4,80.6 M70.8,79.6l-0.7,0.8
		c-0.5,0.6-1.2,1.1-2,1.3c-0.2,0-0.4,0.1-0.6,0.1c-0.3,0-0.6-0.1-0.9-0.2L66,81.2l0.2,0.8c0.1,0.4,0.2,0.7,0.3,1l0.1,0.2l0.2,0.1
		c0.3,0.1,0.6,0.2,0.9,0.2c0.2,0,0.4,0,0.5-0.1c1-0.2,1.9-0.7,2.5-1.5l0.1-0.1v-0.1c0-0.3,0-0.6,0-0.9L70.8,79.6L70.8,79.6z"/>
	<path class="st7" d="M67.4,81.6c-0.4,0-0.8-0.1-1.1-0.2h-0.1v-0.1c-0.1-0.6-0.2-1.2-0.3-1.8c-0.2-2.3,0.2-4.3,1-5.1
		c0.2-0.3,0.5-0.4,0.9-0.4c1.3,0,2.6,2.5,2.8,5.7c0,0.1,0,0.3,0,0.3L70.6,80c-0.6,0.8-1.5,1.3-2.4,1.6
		C67.9,81.6,67.7,81.6,67.4,81.6L67.4,81.6z M67.2,75.1c-0.2,0-0.4,0.4-0.6,1s0,1.3,0.2,1.4l0,0c0.2,0,0.5-0.4,0.6-1
		S67.5,75.2,67.2,75.1L67.2,75.1z"/>
	<path class="st8" d="M67.7,74.1L67.7,74.1c1.2,0,2.4,2.5,2.6,5.5c0,0.1,0,0.2,0,0.3c-0.6,0.7-1.4,1.3-2.3,1.5
		c-0.2,0-0.4,0.1-0.6,0.1c-0.4,0-0.7-0.1-1.1-0.2c-0.1-0.6-0.2-1.2-0.3-1.8C65.8,76.4,66.5,74.1,67.7,74.1 M66.9,77.7
		c0.3,0,0.6-0.5,0.8-1.1s0-1.4-0.4-1.6c0,0-0.1,0-0.1,0c-0.3,0-0.6,0.5-0.8,1.1s0,1.4,0.4,1.6L66.9,77.7 M67.7,73.7
		c-0.4,0-0.7,0.2-1,0.5c-0.8,0.9-1.2,3-1,5.3c0,0.6,0.1,1.2,0.3,1.8v0.2l0.2,0.1c0.4,0.2,0.8,0.3,1.2,0.3c0.2,0,0.5,0,0.7-0.1
		c1-0.3,1.9-0.8,2.6-1.6l0.1-0.1v-0.1c0-0.1,0-0.2,0-0.3C70.5,76.8,69.4,73.8,67.7,73.7L67.7,73.7L67.7,73.7z M66.9,77.2
		c-0.1-0.3-0.2-0.7-0.1-1.1c0-0.3,0.2-0.6,0.4-0.8c0.1,0.4,0.2,0.7,0.1,1.1C67.2,76.7,67.1,77,66.9,77.2L66.9,77.2z"/>
	<path class="st2" d="M16,86.8c1.4-0.7,7.5-2.1,5.5-4.6c2.1,2,3.5,3.9,6.4,2.2c2.4-1.4,4.4-4.6,6.6-6.4l4.2-3.5
		c0,4.1-2.7,9.6,0.6,13s10.5,2.2,13.6,5.7c-1.6,0.7-3.5,1-5.1,1.7c0.5,1.8,3,3.2,4.2,4.7c1.1,1.3,2,2.8,2.8,4.3
		c1.3,2.4,2.3,5,3.9,7.3c-1.8,0.8-3.4,1.7-5,2.9c-2.2,1.7-2.1,3.6-3.6,5.6c-0.8-0.4-1.6-0.9-2.4-1.5c0.4,2.9,2.2,5.1,3.1,7.8
		c-3.3-0.7-5.5-3.1-7.9-5.1s-4.4-2.4-5.4-5.6c-0.4-1.4-0.7-2.7-0.9-4.1c0.6-0.4,1.1-1.2,1.6-1.5c-1.6-1.3-1.5-6-1.9-8.1
		c-0.5-2.6-1.7-5-3.2-7.2c-2-2.9-3.5-3.6-6.9-4.5c-1.8-0.5-6.6,0-7.6-1.5"/>
	<path class="st8" d="M53.4,107.2l0.1,0.8l0.1,0.4v0.2c0,0.3,0,0.6,0.1,0.9c0,0.5,0,1.1,0,1.6c-0.1,0.9-0.3,1.9-0.7,2.7
		c-0.3,0.8-0.8,1.5-1.6,2c0.4-0.7,0.8-1.4,1.1-2.2c0.3-0.8,0.5-1.7,0.5-2.6c0-0.5,0-1.1,0-1.6c0-0.3,0-0.6-0.1-0.8v-0.2l0,0l0,0
		l-0.1,0.1l-0.3,0.4c-0.3,0.4-0.7,0.9-1.1,1.3c-0.7,0.6-1.4,1.2-2.1,1.8c-0.6,0.5-1.3,1-2.1,1.5c0.5-0.7,1.1-1.3,1.8-1.8
		c0.6-0.5,1.3-1.1,2-1.9c0.4-0.4,0.7-0.8,1-1.2l0.2-0.3l0.4-0.7l0.4-0.7l0.1-0.2c0,0,0.1-0.2,0.1-0.1L53.4,107.2z"/>
	<path class="st8" d="M49.6,92.9c1.5,0.5,2.9,1.4,4.1,2.5c0.9,0.9,1.2,1.6,1.1,1.6s-0.5-0.5-1.4-1.3c-1.2-1-2.5-1.7-4-2.3
		c-3.4-1.3-6.5-1.1-6.4-1.3C45.2,91.8,47.5,92.1,49.6,92.9z"/>
	<path class="st8" d="M29.1,93.7c0,0.4,0,0.8,0.1,1.3L28.6,95c-0.1-1,0.1-1.9,0.6-2.7c0.4-0.7,0.9-1.4,1.6-2
		c0.1-0.1,0.1-0.1,0.1-0.2c0.1-0.2,0.2-0.3,0.4-0.3h0.6c0.4,0,0.7,0,1.1,0c0.7,0.1,1.3,0.3,1.9,0.4c0.9,0.2,1.8,0.3,2.7,0.2
		c0.6-0.1,0.9-0.3,1-0.2c-0.3,0.2-0.6,0.4-0.9,0.5c-0.9,0.2-1.9,0.2-2.8,0c-0.6-0.1-1.2-0.2-1.9-0.3c-0.3,0-0.7,0-1,0h-0.5l0,0
		c-0.1,0.1-0.1,0.2-0.2,0.3c-0.6,0.6-1,1.2-1.4,1.9c-0.4,0.7-0.6,1.5-0.5,2.3L28.7,95c-0.1-0.5-0.1-0.9-0.1-1.4
		c0.1-1.9,0.8-3.7,1.9-5.3c0.9-1.5,1.9-2.7,2.6-3.7c1.6-2.1,2.3-3.5,2.3-3.4c-0.4,1.3-1.1,2.6-2,3.7c-0.7,1.1-1.6,2.3-2.5,3.8
		C29.9,90.1,29.3,91.9,29.1,93.7z"/>
	<path class="st8" d="M69.9,126c1.3-1.8,2.8-3.6,4.3-5.3c0.6-0.7,1.3-1.4,2.1-1.9c-0.5,0.8-1.1,1.5-1.8,2.2
		c-1.1,1.3-2.6,3.2-4.1,5.3c-1.3,1.8-2.8,3.6-4.3,5.3c-0.6,0.7-1.3,1.4-2.1,1.9c0.5-0.8,1.1-1.5,1.8-2.2
		C66.9,130,68.3,128.1,69.9,126z"/>
	<path class="st8" d="M72,128.2c1.9-1,3.6-1.8,4.9-2.5c0.5-0.3,0.9-0.5,1.4-0.9c0.1-0.1,0.2-0.2,0.3-0.3c0-0.1,0-0.1,0-0.1
		s0.1,0,0.1,0.1c0,0.2-0.1,0.3-0.2,0.5c-0.4,0.4-0.9,0.7-1.3,1c-1.2,0.8-2.9,1.7-4.8,2.7l-4.9,2.5c-1.3,0.6-1.9,1.1-2,1
		s0.6-0.7,1.8-1.4S70.1,129.2,72,128.2z"/>
	<path class="st8" d="M71,135.2c2.3,2.3,4.3,3.9,4.2,4s-2.3-1.3-4.6-3.5c-1.5-1.3-2.7-2.8-3.8-4.4C66.9,131.1,68.8,133,71,135.2z"/>
	<path class="st8" d="M84.5,141.1c-0.7,0.9-1.5,1.6-2.4,2.4c-0.6,0.5-1.1,0.9-1.1,0.8s0.2-0.5,0.8-1.1s1.4-1.5,2.2-2.5
		s1.1-2.2,2.1-2.6c0.1-0.1,0.3-0.1,0.4-0.1c0.1,0,0.3,0,0.3,0.2s0,0.3,0,0.3v0.2c0,0.2-0.1,0.4-0.1,0.4s-0.1-0.1-0.1-0.4
		c0-0.1,0-0.2-0.1-0.3c0,0-0.1,0-0.1,0c0,0-0.1,0-0.1,0.1c-0.4,0.3-0.7,0.6-0.9,1C85.1,139.9,84.9,140.5,84.5,141.1z"/>
	<path class="st8" d="M75.7,165c-2.1,0.8-3.7,2.2-5.1,2.8c-0.7,0.4-1.5,0.7-2.3,0.8c0-0.1,0.9-0.4,2.1-1.1c1.6-1.1,3.3-2.1,5.1-3
		c1.4-0.5,2.9-0.8,4.4-0.7c0.6,0,1.2,0.1,1.7,0.1c0.2,0,0.5,0,0.7,0c0.3,0,0.5,0.1,0.8,0.2c-0.1,0.3-0.2,0.5-0.3,0.8
		c-0.1,0.1-0.1,0.2-0.1,0.2s-0.1-0.1-0.1-0.3s0.1-0.5,0.1-0.6c-0.4,0-0.7,0-1.1,0.1c-0.5,0-1.1,0-1.7,0
		C78.4,164.2,77,164.5,75.7,165z"/>
	<path class="st8" d="M51.6,147.4c1.1-0.7,2.3-1.1,3.6-1.4c0.4-0.1,0.8,0,1.2,0.2c0.3,0.2,0.3,0.3,0.3,0.3s-0.2-0.1-0.4-0.1
		c-0.3-0.1-0.7,0-1,0c-1.2,0.4-2.3,0.9-3.4,1.5c-1.3,0.7-2.5,1.3-3.4,1.7s-1.5,0.5-1.6,0.4c0.4-0.3,0.9-0.6,1.4-0.8
		C49.1,148.9,50.3,148.1,51.6,147.4z"/>
	<path class="st8" d="M35.6,143.4c0.4,1.1,0.9,2.2,1.5,3.2c0.4,0.8,0.8,1.3,0.7,1.3s-0.5-0.3-1.1-1.1c-0.7-1-1.3-2.1-1.7-3.3
		c-0.7-1.6-1.1-3.2-1.4-4.9C33.9,138.6,34.7,140.9,35.6,143.4z"/>
	<path class="st8" d="M39.6,109.5c1.9,2.2,3.9,3.4,3.8,3.5s-2.3-0.8-4.3-3.1c-0.8-1-1.5-2.1-2-3.2c-0.2-0.5-0.4-1-0.3-1.5
		C37,105.1,37.7,107.3,39.6,109.5z"/>
	<path class="st8" d="M41.5,114.4c3,2,5.9,2.6,5.8,2.8c-0.6,0.1-1.3,0-1.9-0.2c-1.5-0.4-3-1.1-4.3-2c-1.5-1-2.8-2-3.7-2.7
		S35.9,111,36,111c0.6,0.2,1.2,0.4,1.7,0.8C38.7,112.5,40,113.4,41.5,114.4z"/>
	<path class="st8" d="M38.5,116c0.8,0.7,1.2,1.5,1.1,1.6s-0.8-0.4-1.6-1.1s-1.2-1.5-1.1-1.6S37.8,115.3,38.5,116z"/>
	<path class="st8" d="M88.3,107.4c-0.7,1.1-1.4,2.1-1.8,2.9s-0.7,1.2-0.8,1.2s0-0.6,0.4-1.4c0.5-1,1-2,1.7-3
		c0.6-0.9,1.2-1.9,1.6-2.9c0.4-0.8,0.5-1.3,0.6-1.3s0.1,0.6-0.2,1.4C89.5,105.4,89,106.4,88.3,107.4z"/>
	<path class="st8" d="M36.3,165.8c2.3,0.8,4,2,5.4,2.5c0.3,0.1,0.6,0.4,0.9,0.6l0.5,0.6l0.3,0.4c0,0,0.1,0.1,0.1,0l0,0
		c0,0,0,0,0,0.1s-0.1,0-0.1,0c-0.1-0.1-0.3-0.2-0.4-0.3c-0.4-0.3-0.7-0.8-1.4-1c-1.5-0.4-3.3-1.5-5.4-2.3c-0.2-0.1-0.5-0.1-0.8-0.1
		h-0.8c-0.6,0-1.1,0-1.6-0.1c-0.5,0-1-0.1-1.4-0.2c-0.2,0-0.4-0.1-0.6,0h-0.6c-0.8,0.1-1.7,0-2.5-0.2c0,0,0.9-0.1,2.4-0.2h0.6h0.5
		l0.2,0c0.4,0.1,0.9,0.1,1.4,0.2c0.5,0,1,0,1.6,0h0.8c0.2,0,0.3,0,0.5,0L36.3,165.8z"/>
	<path class="st9" d="M6.2,77.9c0,0-4.9,9.6-5.3,13.8c0,0-0.9,3.4-0.7,4.6s4.2,5.6,11,7.6s27.9,4.1,29.4,4.2s6.4,2.9,8.5,1.8
		s2.3-0.8,2.9-0.2s5.8-8.5-0.1-12.9S42.5,96,42.5,96s-9.5-6.5-14.2-7c-2.8-3.9-6.5-7-10.8-9C14,78.3,10.1,77.5,6.2,77.9z"/>
	<path class="st1" d="M24,88c-0.9-0.2-1.7-0.4-2.6-0.5c-0.4-0.1-1.4-0.4-1.8-0.2c1.9-1.2,2.7-1,4.4-2.8c1.4,1.3,2.8,2.7,3.9,4.2
		C26.7,88.4,25.4,88.1,24,88z"/>
	<path class="st1" d="M51.3,107.2c-1.1,0.9-2.6,1.1-4,0.7c-1.4-0.5-2.5-1.9-3.9-2.5c-2.2-0.9-5.2-1-7.6-1.3
		c-3.7-0.5-7.4-0.9-11.2-1.1s-8.2,0-11.8-1.3c-1.7-0.6-3.8-1.1-5.2-2.2c-0.8-0.6-1-1.8-1.6-2.3s-1.5-0.2-2.1-0.5
		C3.2,96.4,2.6,96,2,95.5c-1.1-1.3-0.5-2.9-0.6-4.5l-0.2-0.4c-0.1,0.4-0.2,0.7-0.2,1.1c0,0-0.9,3.4-0.7,4.6s4.1,5.6,10.9,7.6
		s27.7,4.1,29.1,4.2s6.4,2.9,8.4,1.8s2.3-0.8,2.9-0.2c0.2,0.1,0.6-0.3,1-1.1C52.2,108.2,51.7,107.8,51.3,107.2z"/>
	<path class="st10" d="M127.9,78.5c1.2-1.1,1.7-2.7,1.4-4.3c-0.2-2.1-1.3-4.8-2-7.4c-1.4-5.1-10.5-23.9-10.6-25.5s4.5-8,3.7-10.2
		s-5.1-7.9-6-8.3c-1.4-0.5-3.9,0.5-5.2,1c-1.8,0.6-4.2,2-4.5,4.1c0.7-1.4-0.5-3.9-1.1-5.2c-0.4-0.8-0.7-2-1.7-2.3
		c-1.3-0.4-1.3,1-1.1,1.8c0.2,1.4,0.1,2.8-0.4,4.1c-0.4,1.3-1.2,1.8-0.4,3.2c1.5,2.6,2.8,5.3,3.8,8.1c0.3,1,0.7,2,1,2.9
		c0.5,1.3,1.1,2.6,1.4,3.9c2.2,10.8,2.2,10.9,2.3,14.5s-0.6,8.1,0.2,9.6c1.5,2.8,4,4.9,6.9,6.1"/>
	<path class="st8" d="M105.8,26.1c-0.5,0.5-0.8,1.1-0.9,1.8l-0.6-0.2c0.2-0.5,0.2-1,0.1-1.6c-0.1-0.6-0.3-1.1-0.5-1.6
		c-0.2-0.5-0.4-1.1-0.7-1.6c-0.2-0.5-0.4-1-0.7-1.6c-0.2-0.4-0.7-0.7-1.2-0.8c-0.2,0-0.4,0.1-0.4,0.2c-0.1,0.2-0.1,0.5-0.1,0.7
		c0,0.3,0.1,0.5,0.1,0.8c0,0.3,0.1,0.6,0.1,0.9c0,0.6-0.1,1.2-0.2,1.7c-0.1,0.6-0.3,1.1-0.5,1.7c-0.2,0.5-0.4,1-0.6,1.5
		c-0.1,0.5,0.1,1,0.4,1.3c0.3,0.5,0.6,0.9,0.8,1.4c1,1.9,1.9,3.8,2.6,5.8c0.7,2,1.3,3.8,2,5.6c0.4,0.9,0.6,1.8,0.8,2.8l0.6,2.7
		c0.7,3.6,1.5,6.9,1.5,10.1s-0.3,5.9-0.2,8.4c0,0.6,0.1,1.2,0.2,1.7c0.2,0.5,0.4,1,0.8,1.4c0.5,0.8,1.1,1.5,1.8,2.2
		c1.3,1.3,2.8,2.3,4.4,2.9c-0.5-0.1-0.9-0.3-1.3-0.5c-1.2-0.6-2.3-1.4-3.3-2.3c-0.7-0.7-1.3-1.4-1.9-2.2c-0.3-0.5-0.6-0.9-0.8-1.5
		c-0.2-0.6-0.2-1.2-0.2-1.8c-0.1-2.5,0.2-5.3,0.1-8.4s-0.9-6.4-1.6-10l-0.6-2.7c-0.2-0.9-0.4-1.8-0.8-2.7c-0.7-1.8-1.4-3.7-2.1-5.6
		c-0.7-2-1.6-3.9-2.6-5.7c-0.3-0.5-0.5-0.9-0.8-1.4c-0.4-0.5-0.5-1.1-0.4-1.8c0.2-0.5,0.4-1.1,0.6-1.6c0.2-0.5,0.3-1,0.4-1.6
		c0.1-0.5,0.2-1.1,0.2-1.6c0-0.3,0-0.5-0.1-0.8c-0.1-0.3-0.1-0.6-0.1-0.9c0-0.3,0-0.7,0.2-1c0.2-0.4,0.6-0.6,1-0.6
		c0.7,0,1.3,0.4,1.6,1c0.3,0.5,0.5,1.1,0.8,1.6c0.2,0.5,0.5,1.1,0.7,1.6c0.2,0.6,0.4,1.2,0.5,1.8c0.1,0.7,0.1,1.3-0.2,1.9l-0.9,1.8
		l0.3-1.9c0.1-0.8,0.5-1.5,1.1-2.1c0.9-0.9,2-1.6,3.1-2.1c1.1-0.5,2.3-0.8,3.5-1.1c0.6-0.1,1.2-0.2,1.9-0.1c0.2,0,0.3,0.1,0.5,0.1
		c0.2,0.1,0.3,0.2,0.5,0.3c0.2,0.2,0.5,0.4,0.7,0.6c0.8,0.9,1.5,1.8,2.2,2.8c0.7,0.9,1.3,1.9,1.9,2.9c0.3,0.5,0.6,1,0.8,1.5
		c0.1,0.3,0.2,0.6,0.3,0.9c0,0.3,0,0.6-0.1,0.9c-0.3,1.1-0.6,2.2-1.2,3.2c-0.5,1-1,1.9-1.4,2.9c-0.2,0.5-0.5,1-0.7,1.4
		c-0.2,0.4-0.4,0.9-0.4,1.4c0.1,0.5,0.2,0.9,0.4,1.4l0.6,1.4c0.8,1.9,1.6,3.6,2.3,5.4c1.5,3.4,2.9,6.7,4.2,9.6
		c1.2,2.6,2.2,5.4,3.1,8.1c0.7,2.4,1.5,4.5,1.8,6.3c0.3,1.4,0.2,2.8-0.5,4.1c-0.2,0.4-0.6,0.8-0.9,1.1c0.3-0.4,0.6-0.7,0.8-1.1
		c0.6-1.2,0.7-2.7,0.4-4c-0.4-1.8-1.1-3.8-1.9-6.3c-0.9-2.7-2-5.4-3.2-8l-4.3-9.6c-0.8-1.7-1.6-3.5-2.4-5.4l-0.6-1.4l-0.3-0.7
		c-0.1-0.3-0.2-0.6-0.2-0.8c0.1-0.6,0.2-1.1,0.5-1.6c0.2-0.5,0.4-1,0.7-1.4c0.5-0.9,1-1.9,1.4-2.9c0.5-1,0.9-2,1.1-3
		c0.1-0.2,0.1-0.5,0.1-0.8c0-0.2-0.1-0.5-0.2-0.7c-0.2-0.5-0.5-1-0.8-1.4c-0.6-1-1.2-1.9-1.9-2.8c-0.7-0.9-1.4-1.8-2.2-2.7
		c-0.2-0.2-0.4-0.4-0.6-0.6c-0.1-0.1-0.2-0.1-0.3-0.2c-0.1,0-0.2-0.1-0.4-0.1c-0.6-0.1-1.1,0-1.7,0.1
		C109.9,23.7,107.4,24.4,105.8,26.1z"/>
	<path class="st11" d="M100.6,10.9c0,0,7.1,24.4,7.2,24.8s1.2,2.7,3.3,1.6c2.3-1.3,3.4-4.1,2.7-6.6c-0.8-2.3-7.2-21.1-7.2-21.1
		s2.7-3.9,0.6-6.9s-3.9-2.4-4.7-2.2c-0.5,0.1,1.9,3.9,1.9,3.9l-1.1,2.9l-2.9-1.7l-1.2-2.9c0,0-1.3-0.6-1.6-0.5
		c-0.8,0.5-1.4,2.6-0.9,4.7C97.3,8.9,98.7,10.4,100.6,10.9z"/>
	<path class="st11" d="M99.7,10.9c0,0,7.2,23.8,7.3,24.2s1.2,2.7,3.4,1.5s3.5-4.4,2.6-6.7S105.4,9,105.4,9s2.6-3.9,0.5-7
		S102,0.7,102,0.7l1.1,3.5l-1.2,3.1l-2.7-1.6l-1.4-3.4c0,0-2.6,2.3-1.8,5C97,10.9,99.7,10.9,99.7,10.9z"/>
	<path class="st5" d="M35.4,45.2c0,0-7.6,4.8-10,11.3c3.4,3.8,7.5,6.7,12.2,8.6c10.2,4,24.8,5.5,30.6,5l1.4-10.5
		c0,0,8.3,7.2,9.9,9.1s3.8,5.1,3.8,5.1l1.4,4.7l-1.1,5.7l2.5-1l1.3-4.9l-1.1-5.8h-2.2l-3.9-16.8l7.8,6.4c0,0-0.2-8-4.7-13.5
		C82.2,47,82.4,44,78,43.9C68.5,43.8,46.8,32.9,35.4,45.2z"/>
	<path class="st0" d="M79.4,55.5L79.3,55c0,0,1.7-6.1,1.1-9.9c-0.7-0.5-1.5-0.9-2.3-1.2c-8.9-3-31.2-11-42.6,1.3
		c0,0-0.3,0.2-0.7,0.5c0.5,1.6,1.4,3,2.7,4C39.7,51.2,51,60.9,69.1,58c0,0,13,12.5,14.2,15.7c0,0,0.3-0.9,0.6-2.2L79.4,55.5z"/>
	<path class="st12" d="M83.3,73.7c0,0,0.3-0.9,0.6-2.2l-4.5-15.9L79.3,55c0,0,0,0,0.3-1.6c-2.2-2-3.8-5.7-4.6-8.4
		c-0.2-0.7-0.3-1.5-0.3-2.2c-6.6-2.2-16.9-5.1-26-3.9c-0.2,1.7,0.1,3.4,0.8,4.9c0.9,1.9,3.1,3.8,4.5,5.3c1,1.1,2,2.1,3,3.1
		c0.3,0.3,2.5,2.9,2.4,2.9c-0.5,0-1,0.2-1.4,0.6c2.4,0.7,3.7,0.8,5.4,2.8c1.9,0,3.8-0.2,5.7-0.5C69.1,58,82.1,70.5,83.3,73.7z"/>
	<path class="st10" d="M66.4,55.4c-3,0-5.9-0.7-8.6-2.1c-1,0.1-2.1,0.2-3.1,0.2c-1.5,0-3-0.1-4.5-0.3c-3.8-0.6-7.4-1.7-10.8-3.4
		l-0.7-0.3c-2.6-1.3-5.9-2.8-8-4.8c-3.6-3.5-1.5-7.9,0.4-11.7c0.4-0.9,0.8-1.7,1.1-2.4c1-2.5,2-5,3-7.5c0.8-2.1,1.7-4.3,2.5-6.4
		C42.3,5.1,49.1,3.8,53.8,3.8c0.5,0,0.9,0,1.3,0h1.8c4.6,0,11,0.8,15.8,4.5c3.9,3.1,4.9,7.3,5.8,11.1c0.7,3.1,1.3,5.8,3.4,7.1
		c0.5,0.3,1,0.6,1.4,0.8c3.4,2,5.3,3.1,5.3,8.6c0,5.7-6,7.5-7,7.8c-0.6,5.5-4,9.1-10.3,10.9C69.7,55.1,68,55.3,66.4,55.4L66.4,55.4z
		"/>
	<path class="st8" d="M53.8,4c0.9,0,1.6,0,2.3,0h0.9c3.9,0,10.7,0.6,15.7,4.5c7.1,5.6,4.4,15.2,9.2,18.1c4.2,2.6,6.6,3.2,6.6,9.3
		s-7,7.6-7,7.6c-0.4,4.3-2.7,8.7-10.1,10.9c-1.6,0.5-3.3,0.7-4.9,0.7c-3,0-5.9-0.7-8.5-2.1c-1.1,0.1-2.1,0.2-3.2,0.2
		c-1.5,0-3-0.1-4.4-0.3c-3.7-0.6-7.4-1.7-10.8-3.4c-2.8-1.3-6.4-3-8.6-5.1c-4.3-4.1-0.2-9.6,1.6-13.9c1.9-4.6,3.7-9.3,5.5-13.9
		C42.6,4.9,49.4,3.9,53.8,4 M53.8,3.5L53.8,3.5c-4.7,0-11.6,1.3-16.3,12.9c-0.9,2.1-1.7,4.3-2.5,6.4c-1,2.5-2,5-3,7.5
		c-0.3,0.8-0.7,1.6-1.1,2.4c-1.9,3.9-4,8.4-0.4,11.9c2.1,2,5.4,3.6,8,4.8l0.7,0.3c3.4,1.7,7.1,2.8,10.9,3.4c1.5,0.2,3,0.3,4.5,0.3
		c1,0,2.1-0.1,3.1-0.2c2.7,1.4,5.6,2.1,8.6,2.1c1.7,0,3.4-0.3,5-0.7c6.3-1.9,9.7-5.4,10.4-10.9c1.3-0.4,7.1-2.3,7-8s-2-6.8-5.4-8.8
		c-0.4-0.3-0.9-0.5-1.4-0.8c-2-1.3-2.6-3.9-3.4-6.9c-0.9-3.8-1.9-8.1-5.8-11.2c-4.8-3.8-11.3-4.6-15.9-4.6H55c-0.4,0-0.9,0-1.3,0
		L53.8,3.5z"/>
	<path class="st2" d="M37,33.9c1.6-0.8,1.5-2.9,1.7-4.3c0.6-3.3,1.3-7.8,3.5-10.5c0.1,3.6-0.3,7.4-0.3,11c0,2.4,0.3,5.6-0.2,8
		c-1,4.2-7.4,2.9-10,1.3c-1.4-0.9-2.9-2.2-2.4-3.9C30.4,31.2,34.5,35.1,37,33.9z"/>
	<path class="st1" d="M88.4,36.1c-0.1,0.1-0.2,0.2-0.3,0.2c-0.8,0.4-1.6,0.6-2.5,0.5c-1.6,0-3.1-0.1-4-1.5c-0.3-0.6-0.3-1.3-0.9-1.7
		c-0.7-0.3-1.6-0.4-2.3-0.2c-1.4,0-3.6,0.2-4.4,1.4c-0.4,0.6-0.3,1.1-0.9,1.7c-0.6,0.6-1.3,1-2,1.4c-2.9,1.4-6,1.3-9.1,0.9
		c-2.4-0.3-4.9-0.3-7.2-0.7c-0.7-0.1-1.3-0.6-2-0.7c-4.3-1-0.4,12.3,0.3,13.5c0.4,0.8,0.9,1.6,1.5,2.3c1.1,0,2.2,0,3.4-0.2
		c4.1,2.2,9,2.7,13.5,1.4c7.5-2.2,9.7-6.6,10.1-10.9C81.4,43.6,88.3,42.1,88.4,36.1z"/>
	<path class="st1" d="M79.9,32.9c0.6-1.4-2.7-1-4.9-4.8c-0.9-1.5-1.4-4.7-1.8-6.4S72.8,18.7,72,17c-1.5-2.8-3.2-5.4-5.1-8
		c-0.7-1.2-1.5-2.2-2.5-3.1c-0.6-0.5-1.2-1-1.8-1.5c-2.1-0.3-4.2-0.5-6.3-0.4C54.1,4,50,3.4,45.8,6c4.5,1.1,7.4,4.6,10.7,7.4
		c2.3,2.1,4.4,4.3,6.3,6.8c1.3,1.6,2.6,3.1,3.8,4.8c2.4,3.7,4.9,8.1,10.1,8.6C77.4,33.9,79.5,33.9,79.9,32.9z"/>
	<path class="st10" d="M42.5,9.9c0,0-7.4-0.4-8.8-0.9s-9.9,11.6-11.3,12.3s-2,2.3-1.2,3.1s2.4,8.4,7.8,10.8s11.2,3.3,10.7-0.8
		s1.3-14.7,3.8-15.8"/>
	<path class="st8" d="M24.4,30.4c1.2,2.1,3,3.8,5.2,4.8c2,1,4.2,1.6,6.5,1.8c1,0.2,2-0.1,2.8-0.7c0.3-0.3,0.5-0.7,0.5-1.2
		c0-0.5,0-1-0.1-1.4c-0.1-1.8,0.1-3.6,0.3-5.4c0.3-2.6,1-5.1,2-7.6c0.3-0.7,0.7-1.3,1.1-1.8c0.2-0.2,0.4-0.3,0.6-0.4
		c-0.2,0.1-0.4,0.3-0.5,0.5c-0.4,0.6-0.8,1.2-1,1.8c-0.9,2.4-1.5,4.9-1.8,7.5c-0.2,1.8-0.3,3.5-0.3,5.3c0.1,0.5,0.1,1,0.1,1.5
		c0,0.6-0.3,1.1-0.7,1.5c-0.9,0.7-2.1,1-3.2,0.8c-2.3-0.2-4.6-0.9-6.7-1.8c-2.3-1-4.2-2.8-5.5-5c-0.6-1.1-1.2-2.2-1.7-3.4l-0.7-1.7
		c-0.1-0.3-0.2-0.6-0.4-0.8c-0.1-0.1-0.1-0.2-0.2-0.3c-0.1-0.1-0.2-0.3-0.3-0.5c-0.2-0.7-0.1-1.4,0.4-1.9c0.4-0.5,0.8-0.9,1.4-1.2
		c0.8-0.8,1.5-1.6,2.2-2.4c2.4-3.1,4.9-6,7.5-8.8c0.3-0.3,0.6-0.5,1-0.8c0.1-0.1,0.2-0.1,0.3-0.1c0.1,0,0.3,0,0.4,0
		c0.2,0.1,0.3,0.1,0.5,0.1c0.7,0.1,1.4,0.2,2.1,0.3c1.3,0.2,2.4,0.3,3.3,0.4c1.8,0.2,2.8,0.3,2.8,0.3c-1,0-1.9,0-2.9-0.1
		c-0.9-0.1-2.1-0.1-3.4-0.3c-0.6-0.1-1.4-0.1-2.1-0.3c-0.2,0-0.4-0.1-0.6-0.1s-0.2,0-0.4,0.1c-0.3,0.2-0.6,0.5-0.9,0.7
		c-2.3,2.3-4.6,5.5-7.4,8.9c-0.7,0.9-1.5,1.8-2.3,2.5c-0.2,0.1-0.3,0.2-0.4,0.3c-0.1,0.1-0.2,0.1-0.3,0.2c-0.2,0.2-0.4,0.4-0.5,0.6
		c-0.3,0.4-0.4,0.9-0.3,1.4c0,0.1,0.1,0.2,0.2,0.3c0.1,0.1,0.2,0.3,0.3,0.4c0.1,0.3,0.3,0.6,0.4,0.9l0.7,1.7
		C23.3,28.2,23.8,29.3,24.4,30.4z"/>
	<path class="st0" d="M108.8,25.7c-1.5,1.1-4.4,1.4-5.5-0.2c-0.7-1-0.7-3.4,0.9-3.7c0.7-0.1,1.3,0.2,2.1,0c1.4-0.4,2.5-1.4,4-1.3
		c1.4,0.3,2.7,0.9,3.8,1.8c1.1,0.8,2,1.7,2.7,2.8c0.3,0.6,0,1.4,0.7,1.8"/>
	<path class="st13" d="M113.9,30.3c-2.2,1.1-1.9-2.4-3.7-2.1c-0.8,0.1-1.3,1-2.1,1.2c-2.4,0.7-5.1-1-4.7-3.4c0.2-1.4,1-0.9,2.1-1.3
		c0.8-0.3,1.6-0.9,2.2-1.5c0.4-0.4,0.8-1.1,1.4-1.3c1-0.3,2.1,0.5,2.9,1c0.9,0.5,1.8,0.9,2.8,1.1c1.9,0.5,2.9,2.6,3.5,4.4"/>
	<path class="st14" d="M112.5,37.5c-1.3-1-0.8-1.8,0.1-2.9c-1.3-0.2-1.8-1.9-3-1.5c-1.3,0.5-2,1.5-3.5,1c-1.2-0.3-2.1-1.5-1.9-2.8
		c0.3-1.3,1.3-1.3,2.3-1.8c1.7-0.7,2.5-3.1,4.4-2.6c1.7,0.4,3,1.5,4.4,2.4s2.7,1.2,3.9,2.5"/>
	<path class="st15" d="M77.7,38.2L77.7,38.2c-0.1-0.1-0.1-0.3-0.1-0.4c0-0.1-0.1-0.2-0.2-0.3c-0.2-0.2-0.5-0.4-0.9-0.6
		c-1.2-0.4-2.2-1.3-2.9-2.4c-0.3-0.7,2.4-3.4,4.8-3.2s3.7,1.6,2.9,3S79.6,36,79.2,37c-0.2,0.4-0.4,0.7-0.7,0.9
		C78.3,38,78,38.3,77.7,38.2z"/>
	<path class="st16" d="M77.7,40.7c-0.7,2.1-4.5,4.4-11.2,4.4c-2.5-0.1-5-0.6-7.3-1.3c-1.2-0.2-2.3-0.6-3.4-1.2
		c-0.4-0.2-0.8-0.3-1.2-0.5c-0.5-0.3-1.1-0.5-1.6-0.8c-1.7-0.3,0.2,3.6,0.7,4c0,0,3.1,5.1,5.8,5.9s13.5,2,17.9-1
		c0.9-0.6,1.7-1.2,2.4-1.9c0.9-1.5,1.4-3.2,1.5-4.9C79.6,43.7,78,42.5,77.7,40.7C77.7,40.7,77.7,40.7,77.7,40.7z"/>
	<path class="st17" d="M57.2,41.6c0,0,2.6,3.5,9.3,3.5s10.5-2.3,11.2-4.4c0.2,1.8,1.8,3.1,3.6,2.9c0,0,0.1,0,0.1,0"/>
	<path class="st17" d="M81.4,43.6c-1.8,0.2-3.4-1-3.7-2.8c0,0,0-0.1,0-0.1c-0.7,2.1-4.5,4.4-11.2,4.4s-9.3-3.5-9.3-3.5"/>
	<path class="st17" d="M53.3,44.9c0.1,0.2,0.3,0.3,0.4,0.4c0.2,0.1,0.4,0.3,0.5,0.4c0.2,0.1,0.4,0.2,0.6,0.3
		c0.4,0.2,0.7,0.3,1.1,0.4c1,0.4,2.2,1.2,3.3,1.1s1.1-0.5,1.3,0.5c0.1,0.7,0.3,1.3,0.4,2c0.7-0.6,1.3-1.3,1.7-2.1
		c0.1,0.1,0.3,0.5,0.4,0.6s5.9,1.5,13.2-0.3c2-0.5,4-1.3,4.7-2.4"/>
	<path class="st18" d="M58.5,31.6c-2.7-0.1-4.3-0.6-4.5-3.1c0-1.4,0.6-2.7,1.6-3.7c0.9-1,2.2-1.6,3.5-1.7c0.6,0,1.1,0.1,1.6,0.3
		c3.7,1.5,3.5,7.2,3.5,7.5v0.2h-0.1c-1.7,0.3-3.3,0.4-5,0.4L58.5,31.6z"/>
	<path class="st8" d="M59.1,23.4c0.5,0,1.1,0.1,1.6,0.3C64.3,25.2,64,31,64,31c-1.6,0.3-3.3,0.4-4.9,0.4h-0.6
		c-2.8-0.1-4.1-0.7-4.3-2.9C54.1,26.6,56.3,23.4,59.1,23.4 M59.1,23c-1.4,0-2.7,0.7-3.7,1.7c-1,1-1.6,2.4-1.6,3.8
		c0.2,2.6,1.9,3.2,4.7,3.3h0.6c1.7,0,3.3-0.2,5-0.4l0.3-0.1V31c0-0.3,0.2-6.1-3.6-7.7C60.3,23.1,59.7,23,59.1,23L59.1,23z"/>
	<path class="st18" d="M76.5,28.9v-0.1c-0.1-0.2-1.6-5.1-0.6-6.9c0.1-0.4,0.5-0.6,0.9-0.6c1.2,0,2.7,2.3,3.1,3.9
		c0.5,1.9,0.3,2.8-0.9,3.4c-0.7,0.3-1.4,0.4-2.1,0.4H76.5z"/>
	<path class="st8" d="M76.7,21.3c1.1,0,2.5,2.2,2.9,3.8c0.5,1.9,0.2,2.6-0.8,3.1c-0.7,0.3-1.4,0.4-2.1,0.4h-0.1c0,0-1.6-5-0.7-6.8
		C76.1,21.5,76.4,21.3,76.7,21.3 M76.7,20.9L76.7,20.9c-0.5,0-0.9,0.3-1.1,0.8c-1,1.9,0.5,6.5,0.6,7.1l0.1,0.3h0.4
		c0.8,0,1.5-0.1,2.2-0.4C80.3,28,80.6,27,80,25C79.6,23.4,78,20.9,76.7,20.9L76.7,20.9z"/>
	<path class="st19" d="M60.8,28.3c-0.4,1.8-1.9,3.1-3.4,2.8s-2.4-1.9-2-3.8s1.9-3.1,3.4-2.8S61.2,26.5,60.8,28.3z"/>
	<path class="st20" d="M59.2,28c-0.1,0.6-0.6,1.1-1.3,1.1c-0.6-0.2-1-0.8-0.8-1.4c0,0,0,0,0,0c0.1-0.6,0.7-1.1,1.3-1.1
		C59,26.8,59.3,27.4,59.2,28C59.2,28,59.2,28,59.2,28z"/>
	<path class="st21" d="M60.7,27c-0.1,0.7-0.7,1.1-1.3,1.1c-0.6-0.2-1-0.8-0.8-1.4c0,0,0,0,0,0c0.1-0.6,0.7-1.1,1.3-1.1
		C60.6,25.7,60.9,26.4,60.7,27C60.7,27,60.7,27,60.7,27z"/>
	<path class="st22" d="M78.2,25.6c0.3,1.3,0.1,2.5-0.6,2.7s-1.4-0.8-1.6-2.2s0-2.5,0.6-2.7S77.9,24.3,78.2,25.6z"/>
	<path class="st23" d="M77.4,26c0.1,0.5,0,1-0.2,1s-0.5-0.3-0.6-0.8s0-1,0.2-1S77.2,25.5,77.4,26z"/>
	<path class="st21" d="M77.7,24.9c0.1,0.5,0,1-0.2,1s-0.5-0.3-0.6-0.8s0-1,0.2-1S77.5,24.3,77.7,24.9z"/>
	<path class="st8" d="M58.4,20.5c0.8,0.1,1.5,0.3,2.2,0.6l1.6,0.8c0.9,0.4,1.5,0.5,1.5,0.6S63,22.6,62,22.3
		c-1.2-0.5-2.4-0.9-3.7-1.2c-0.3,0-0.7,0-1,0.1c-0.3,0.1-0.6,0.2-0.9,0.3c-0.5,0.3-1,0.5-1.5,0.9c-0.9,0.5-1.3,0.9-1.4,0.9
		s0.3-0.6,1.1-1.2c0.5-0.4,1-0.7,1.5-1C56.9,20.6,57.6,20.5,58.4,20.5z"/>
	<path class="st8" d="M76.3,19.5c-0.4,0.2-0.7,0.6-0.8,1.1c-0.1,0.4-0.2,0.6-0.3,0.6S75,21,75,20.5c0-0.6,0.4-1.2,0.9-1.6
		c0.6-0.3,1.2-0.3,1.8,0c0.4,0.2,0.6,0.4,0.6,0.5s-0.3,0-0.7-0.1C77.2,19.2,76.7,19.3,76.3,19.5z"/>
	<path class="st1" d="M39.2,27.7c-0.7-1-1.6-1.9-2.4-2.7c-1.8-2-2.8-4.6-3.1-7.2c-0.2-3,1.5-5,3.8-6.8c1-0.7,2.2-1.1,3.4-1.1h-0.7
		c-2.2-0.1-4.3-0.3-6.5-0.7C32.3,8.6,24,20.5,22.6,21.3s-2,2.3-1.2,3s2.3,8.2,7.6,10.6s10.9,3.3,10.4-0.8c-0.1-1.9-0.1-3.8,0.2-5.7
		C39.5,28.1,39.3,27.9,39.2,27.7z"/>
	<path class="st2" d="M39.4,34.1c-0.1-0.4-0.1-0.9-0.1-1.4c-1.1,4.1-5.2,1.6-8.1,0.5c-2.4-0.8-4.6-2.2-6.3-4.1c-1.7-2-2.1-5-2.7-7.5
		c-1,0.8-1.4,2.1-0.8,2.8s2.3,8.2,7.6,10.6S39.9,38.1,39.4,34.1z"/>
	<path class="st24" d="M75.7,37.2c-1-0.8-2.1-1.7-2.1-3.1c0.6,1,2.2,1.6,3.3,1.9c0.6,0.2,1.2,0,1.7-0.4c0.6,0.8,1.6,0.1,2.1-0.4
		c-0.2,0.2-0.4,0.7-0.6,0.9s-0.7,0.6-1,1c-0.4,0.6-0.4,2-1.6,1.7c-0.3-0.1-0.8-0.7-1-0.9C76.3,37.7,76,37.4,75.7,37.2z"/>
	<path class="st8" d="M24,88.3c-2.4-0.5-4.8-0.7-7.2-0.8c-1.9-0.1-3,0.1-3,0c1-0.4,2-0.6,3-0.5c2.4,0,4.9,0.2,7.3,0.6
		c2.4,0.4,4.8,1.1,7.1,1.9c1,0.3,1.9,0.7,2.8,1.3C30.6,89.8,27.3,88.9,24,88.3z"/>
	<path class="st10" d="M46.2,95.6c0.3-1,1.6-1.2,2.7-1.5c1.2-0.3,2.3-0.8,3.3-1.5c1.3-1.1,1.2-1.8,2.7-0.9c1.7,1,3.2,4.7,1.3,6.1
		c-1.2,0.9-5.5,1.6-6.1,0"/>
	<path class="st8" d="M56.3,92.7c0.5,0.7,0.8,1.5,1,2.3c0.2,0.8,0,1.7-0.4,2.4c-0.5,0.6-1.1,0.9-1.9,1.1c-0.6,0.2-1.2,0.3-1.8,0.3
		c-0.9,0.1-1.8,0-2.6-0.4c-0.6-0.3-0.6-0.8-0.6-0.8s0.2,0.3,0.7,0.5c0.8,0.3,1.6,0.3,2.4,0.2c0.6-0.1,1.1-0.2,1.7-0.4
		c0.6-0.1,1.1-0.5,1.6-0.9c0.7-1,0.3-2.8-0.6-4c-0.4-0.6-1-1.1-1.7-1.4c-0.4-0.1-0.5-0.1-0.7,0.1s-0.5,0.5-0.8,0.8
		c-1,0.9-2.2,1.5-3.5,1.8c-0.8,0.1-1.6,0.4-2.4,0.8c-0.5,0.3-0.6,0.6-0.6,0.6s0-0.4,0.5-0.8c0.7-0.5,1.5-0.8,2.4-1
		c1.2-0.3,2.3-0.9,3.2-1.7c0.3-0.2,0.5-0.5,0.8-0.8c0.2-0.2,0.4-0.3,0.7-0.4c0.2,0,0.5,0,0.7,0.1C55.2,91.4,55.9,92,56.3,92.7z"/>
	<path class="st10" d="M49.9,97.9c0.8-0.7,2-0.2,3,0.2c1.1,0.4,2.4,0.6,3.6,0.5c1.7-0.2,2-0.9,2.7,0.7c0.8,1.8,0,5.7-2.3,5.8
		c-1.5,0.1-5.4-1.7-5-3.4"/>
	<path class="st8" d="M59.8,101c0,0.8-0.2,1.7-0.5,2.5c-0.5,1.5-2,2.3-3.5,1.8c-0.1,0-0.2-0.1-0.3-0.1c-0.6-0.2-1.1-0.4-1.7-0.7
		c-0.8-0.4-1.5-1-1.9-1.8c-0.3-0.6-0.1-1,0-1c0,0.3,0.1,0.6,0.3,0.8c0.5,0.7,1.1,1.2,1.8,1.5c0.5,0.3,1,0.5,1.6,0.6
		c0.6,0.2,1.2,0.2,1.8,0c1.1-0.5,1.7-2.1,1.8-3.7c0-0.7-0.2-1.5-0.6-2.1c-0.2-0.3-0.3-0.4-0.6-0.4s-0.7,0.2-1.1,0.2
		c-1.3,0.2-2.6,0.1-3.9-0.4c-0.8-0.3-1.6-0.6-2.4-0.7c-0.3,0-0.6,0.1-0.9,0.2c0,0,0.2-0.4,0.9-0.4c0.9,0,1.7,0.2,2.5,0.5
		c1.2,0.4,2.4,0.5,3.6,0.3c0.3-0.1,0.7-0.2,1.1-0.3c0.3-0.1,0.5,0,0.8,0.1c0.2,0.1,0.4,0.3,0.5,0.5C59.6,99.3,59.9,100.1,59.8,101z"
		/>
	<path class="st10" d="M51.7,101.6c1-0.2,1.8,0.8,2.6,1.6c0.8,0.9,1.8,1.7,2.9,2.1c1.6,0.6,2.2,0.1,2,1.9c-0.2,2-2.8,5.1-4.8,4.1
		c-1.4-0.6-3.9-4.1-2.7-5.4"/>
	<path class="st8" d="M58.8,109.1c-0.4,0.7-1,1.4-1.6,1.9c-1.1,1.1-2.8,1.1-3.9,0c-0.1-0.1-0.2-0.2-0.3-0.3
		c-0.4-0.4-0.8-0.9-1.1-1.4c-0.5-0.7-0.8-1.6-0.8-2.5c0.1-0.7,0.4-0.9,0.4-0.9c-0.1,0.3-0.2,0.6-0.2,0.9c0.1,0.8,0.4,1.6,0.9,2.2
		c0.3,0.5,0.7,0.9,1.1,1.3c0.4,0.5,0.9,0.8,1.6,0.9c0.7,0,1.3-0.2,1.8-0.7c0.6-0.5,1.1-1.1,1.4-1.7c0.4-0.6,0.6-1.4,0.6-2.1
		c0-0.1,0-0.3-0.1-0.4c0-0.1-0.1-0.1-0.3-0.2s-0.7-0.2-1-0.3c-1.2-0.4-2.3-1.2-3.2-2.2c-0.5-0.7-1.1-1.3-1.8-1.8
		c-0.3-0.1-0.6-0.2-0.9-0.3c0,0,0.4-0.2,1,0c0.8,0.4,1.4,1,2,1.7c0.8,0.9,1.8,1.6,3,2c0.3,0.1,0.7,0.1,1.1,0.3
		c0.3,0.1,0.5,0.3,0.6,0.5c0.1,0.2,0.1,0.5,0.1,0.7c0,0.4,0,0.8-0.1,1.3C59.2,108.4,59,108.8,58.8,109.1z"/>
	<path class="st8" d="M116.8,42.2c-0.1,1.3-0.1,2.3-0.3,2.3s-0.4-1-0.3-2.4s0.4-2.3,0.5-2.3S116.9,40.9,116.8,42.2z"/>
	<path class="st8" d="M9.9,78.3c-0.8-0.1-1.5-0.1-2.3-0.1c-0.6-0.1-1.2-0.1-1.8,0c-0.4,0.1-0.7,0.3-1.1,0.5
		c-0.3,0.2-0.4,0.2-0.4,0.2s0.1-0.2,0.3-0.4c0.3-0.3,0.7-0.6,1.1-0.8c0.6-0.1,1.3-0.2,1.9-0.2c0.8,0,1.6,0,2.4,0.1
		c2,0.2,4,0.7,5.8,1.5C15.7,79.3,13.1,78.7,9.9,78.3z"/>
	<path class="st8" d="M96.4,70.6c0.4,4,0.4,8.1,0,12.1c-0.1,1.7-0.5,3.3-1.1,4.9c-0.1,0,0.4-1.9,0.6-4.9c0.3-4,0.3-8-0.1-12
		c-0.4-4-1.1-8-2-11.9c-0.7-3-1.3-4.8-1.2-4.9c0.7,1.5,1.3,3.1,1.6,4.7C95.3,62.6,96,66.6,96.4,70.6z"/>
	<path class="st2" d="M65.5,46.5c-3.6-0.6-9.1-0.9-9.3-5.4c3.1,1.4,6,2.7,9.4,2.7c2.4,0.2,4.7-0.1,7-0.6c2.4-0.8,3.1-2.2,5-3.6
		c1.4,1.5,1.4,3.1,4,3.2c2.1,0.1,3.4-1.2,5-2.4c-0.2,2.6-5.4,2.4-5.7,4.5c-1.3,0.2-2.7-0.2-3.6-1.2C73.3,45.1,69.9,47.1,65.5,46.5z"
		/>
	<path class="st2" d="M35.1,45.1c2.4,1.1,4.8,2.5,7.4,3.3c2.6,1,5.3,1.8,8,2.5c1.5,0.3,3.2,0.2,4.7,0.6c-0.1-0.6-0.2-1.1-0.3-1.6
		c2.7,2.6,6.6,3.3,10.5,3.4c2.1,0.1,4.2,0,6.3-0.3c1.9-0.2,3.7-0.6,5.5-1.2c1.8-0.6,2.2-2.7,3.4-3.9c-0.6,1.4-0.7,2.9-1.2,4.4
		c-0.6,1.4-1.3,2.8-2.1,4.1c-1,2.2-2.5,4.2-4.3,5.8C71.9,61,71,58.4,69.1,58c-0.9,0-1.8,0.2-2.7,0.4c-1.8,0.2-3.7,0.1-5.5,0.3
		c-3.3,0.4-6.7,0.2-10-0.6c-3.4-0.9-6.2-2.7-9.1-4.5c-2.2-1.2-4.1-2.8-5.7-4.6c-0.8-1.1-1-1.7-2.2-2.4c-1.3-0.7-2.5-1.4-3.6-2.3
		c-1.6-1.4-1.8-2.8-1.6-4.8c0.9,0.9,1.8,1.7,2.8,2.4C32.6,43.1,33.6,44.5,35.1,45.1z"/>
	<path class="st2" d="M106,45.7c-0.2-1.6-0.6-3.1-1.2-4.6c-0.6-1.4-1.6-2.6-1.7-4.1c0-1.8-0.6-3.6-1.6-5.1c-0.7-0.9-2-2-2.1-3.2
		s1.3-2.4,2-3.5c0.6-1.2,1-2.4,1.2-3.7c1.1,0.7,0.2,2.4,0.9,3.3c0.3,0.4,0.9,0.2,1.2,0.6s0.1,1.2,0.4,1.8c0.9,1.3,3.1,0.5,4.3,0
		c-0.6,0.6-1.3,1.2-2,1.7c-0.6,0.5-2.2,0.9-2.6,1.5c-0.7,1,0.3,1.7,1.1,2c2.2,0.7,4.3-0.9,5.4-2.6c-0.4,1.6,1.7,3.3,3.1,3.7
		c-1.6,1.2-2.9,3.3-1.2,4.8c-1.3,1.2-5,3.8-1.4,3.9c-0.3,0.7-2.2,1.7-2.3,1.9c-0.3,1.5,0.1,3.6,0.3,5.1c0.1,1.9,0.3,3.8,0.6,5.7
		c0.7,3.4,1.7,6.7,2.4,10.1c0.8,3.8,2.3,7.9,5.7,10.3c1.3,1.1,2.8,2,4.5,2.6c1.1,0.3,5.3,0.6,5.6-1c-0.7,4.4-6.3,5.1-10.2,6
		c-3.4,0.8-6.3-0.1-9.6-0.4c-0.4,0.9-1.5,1.3-2.4,1.8c-1.4-1.2-2.8-2.2-4.4-3.1c-1.4-0.7-4.2-1.2-5.2-2.4c-0.7-1-0.8-4.6-1.2-5.9
		c-0.9-3.5-0.5-7.2-1.4-10.8c2.2,2.4,6.1,1,9.1,1.2c-1.6,2.1-4.3,3.6-5.7,5.7c3.3,2,7.6,8.4,12.6,6.8c0.7-0.2-1.7-4.5-1.9-4.9
		c-0.7-1.7-0.2-3-0.1-4.7c0.2-2.1,0.3-4.1,0.4-6.2c0.1-2.8-1-5.5-1.5-8.2C106.9,49.6,106.5,47.7,106,45.7z"/>
	<path class="st2" d="M20,81.8c0.7,0.8,1.8,3.2,1.3,4.1s-3.1,1.2-3.6,1.1c4,0.1,7.5,1.2,11.2,2.1c-1.7-3.4-5.8-5.2-8.5-7.9"/>
	<path class="st2" d="M19.5,104.3c3.4,0.6,7.3-0.2,10.7,0.6s6.2,2.3,9.8,1.9c1.6-0.2,1.6-0.7,3,0c0.9,0.4,1.4,1.4,2.5,1.7
		c2.9,0.8,4.4-1.2,6.3-2.7c1.4,2,2.8,4.4,5.9,3.6c0.8,1.4-1.7,2.4-2.7,2.3c-1.5-0.2-2.4-2.2-3.5-2.5s-3,1-4.2,1.2
		c-1.5,0.2-3,0-4.4-0.5c-1.4-0.4-2.6-1.1-3.9-1.4c-5-1.1-9.8-1.3-15.2-2.1c-4.5-0.7-9.9-0.9-14.1-2.7c-1.8-0.8-3.5-1.8-5-3.1
		c-1-0.9-4.1-3.2-4.4-4.1c0.3,0.7,2.7,1.6,3.4,2c1.6,1,3.3,1.9,5,2.7C12,102.6,15.7,103.7,19.5,104.3z"/>
	<path class="st2" d="M34.1,136.9c-0.3,4.3,1.6,11.2,4.8,14.4c-2.6,0.1-4.5,0.4-4.8-2.4c-0.6,0.6-1.2,1.3-1.7,2.1
		c0.1-2.8-0.9-7.9,0.7-10.2"/>
	<path class="st2" d="M78.9,127.3c-1.8,0.5-3.9,0.4-5.7,1.2c-1,0.4-3.7,3.1-5,2.3c-1.7-1,1.1-5.5,2.7-7.1c-1.9,1.7-5.6,6-5.7,7.5
		l-0.2,1.2c0.2-0.2,0.3-0.4,0.4-0.5c0.5-0.8,0.9,1.3,1.7,4.2s-0.2,7-0.1,8.8s-1.9,0.7-1,3.6s0.2,6.5,0.7,8.8s-0.4,9.1-0.4,9.1
		l-1.4,4.4l0.5,1.8c0,0,4.8-3,6.1-2.8h0.2c0.8-1.2,2.1-2.1,2.6-3.3c-2.2,0-4.1,1.8-6.3,1.9c0-2.7,0.6-5.6,0.3-8.3s-1.3-5.2-1-8.3
		c1.3,1.6,2.8,3.1,4.2,4.6c-1.3-2.8-0.8-7.5-3.2-9.6c1.3-2.2,0.8-6.8,0.4-9.1c2.1,0.5,3.8,2.3,6.1,2.6c-2.1-1.9-3.2-5-5.6-6.5
		C72,131.1,76.1,129.9,78.9,127.3z"/>
	<path class="st2" d="M70.9,123.7c0.2-0.2,0.4-0.4,0.6-0.5C71.3,123.3,71.1,123.5,70.9,123.7z"/>
	<path class="st2" d="M83.2,143.5c0.7-0.5,1.3-1,1.4-1.8c-4.2,2.5-5.3,6.9-7.7,10.7c1.4-1.2,3-2.1,4.7-2.7c0,1.7-0.1,3.4-0.4,5.1
		c1.2-2.4,0.9-4.5,1.7-6.9c0.7-2.1,2.5-3.9,2.4-6.2"/>
	<path class="st2" d="M86.8,108.4c-1.9,2.7-4,5.3-6.3,7.6c3.4-2.4,8.8-3.9,8.8-8.9"/>
	<path class="st2" d="M73.4,95.5c-1.8-0.8-3.4-1.8-4.8-3.2c-1.2-1.1-2.4-2.2-3.4-3.5c-0.7-1.1-1.6-2.1-2.4-3.1
		c-0.7-0.8-1.8-1.9-1.7-3c0.8,1.1,1.5,2.5,2.4,3.5c1.8,2.2,4.1,4,6.7,5.3c2.7,1.4,5.5,2.5,8.4,3.3c2.1,0.6,4.1,1.4,6.2,0.9
		c-2.1,0.3-3.9,1.7-6.1,1.7C76.7,97.3,75.2,96.2,73.4,95.5z"/>
	<path class="st2" d="M71.3,109.1c0.6,0,1.1,0.1,1.7,0.2c0.6,0,1.3-0.1,1.9-0.2c1.2-0.3,2.3-0.9,3.3-1.6c0.9-0.8,1.8-1.5,2.8-2.1
		c1.1-0.6,2.1-1.3,2.9-2.1c0.9-0.8,1.6-1.6,2.5-2.4c1.3-1.3,3.4-3.3,3.6-5.1c-0.9,0.9-1.6,2-2.5,2.9s-2,1.6-3,2.5
		c-1.8,1.6-3.8,2.9-6,3.9C76,106.2,73.6,107.6,71.3,109.1z"/>
	<path class="st2" d="M39.7,65.5c2.7,0.7,5.7,0.9,8.4,1.4c3.8,0.7,7.5,1.1,11.1,2.2c2.4,0.7,4.8,1,7.3,0.9c2.2-2.7,1.7-7.4,2.8-10.6
		c1.3,0.8,2.4,1.9,3.1,3.3c-2.6,0.3-2,1.9-1.9,3.5c0.1,2.7-1.3,6.3-1.9,9.1c-6.7-3.1-14.4-3.5-21.7-4.8c-1.8-0.3-3.4-0.2-5.1-0.9
		c-2.9-1.2-5.7-2.8-8.3-4.7c-2.2-1.7-6.3-3.3-6.2-6.7c0-0.7,4.9,2.6,5.4,3.1C34.7,63.2,37.1,64.7,39.7,65.5z"/>
	<path class="st2" d="M80.5,55.3c2.9,1.8,4.6,5,7.5,6.7c0-0.7,0-1.4,0.2-2.1c0.2,1.9-0.1,3.7-0.8,5.4c-1.7-1.6-1.8-3.9-4-5.2
		c-1.5-0.9-1.8-0.5-2.6-2.3"/>
	<path class="st2" d="M39.6,170.9c-0.3-0.1-0.4-0.5-0.8-0.7c-0.5-0.2-1-0.3-1.6-0.3c-1.9-0.3-3.8-0.2-5.6,0.2
		c-0.8,0.2-1.6,0.5-2.4,0.7c-0.2,0-0.4,0.1-0.6,0.1c-0.3,0.1-0.5,0.4-0.6,0.7c-0.1,1,1.4-0.2,1.8-0.4c1.1-0.3,2.2-0.2,3.2,0.3
		c0.7,0.3,1.6,0.1,2.3,0.5c0.2,0.1,0.4,0.3,0.6,0.5c0.8,0.4,1.5,0.8,2.4,1.1c1.2,0.4,2.3,1.1,3.3,2c0.4,0.5,0.7,1.6,1.3,1.9
		c0.1-0.4,0.1-0.9,0.3-1.3c0.2-0.6,0.4-1.2,0.6-1.9c0.3-1.1,0.3-2.2,0.1-3.2c-0.2-0.7-0.6-1.3-1.1-1.8c0,0,9.1-15.5,10-17.6
		s4.3-4.4,3.8-5.4s2.5-4.5,3.1-6.6c0.4-1.6,3.1-4.7,4.6-6.5l0.8-2.7c-0.9,2.4-4.1,4.5-5.7,6.7c-2.1,3-3.2,6.9-5.2,9.7
		c-1,1.4-7.8,5.6-9.6,5.3c1.7,0.2,3.4-0.6,5.1-0.4c-2.3,5.4-5.5,10.4-7.5,15.9c-0.2,0.8-0.5,1.5-0.8,2.3
		C41.2,170.7,40.4,171.1,39.6,170.9z"/>
	<path class="st4" d="M25.3,193.2c6.8-0.1,9.9-2.4,9.9-2.4l2.4-2.4l0.1-1.4l1.3-0.6c0,0,2.9-0.1,3.3-1.5c0-0.1,0.2-1.2,0.3-1.4
		c-0.4,0.2-0.6,1.2-2.1,1.3c-1.7,0.2-3.1,0.4-3.1,0.4s-0.7,2.5-0.9,3.2s-3.4,2.8-7.7,3.4c-3.7,0.5-7.8,0.6-10.2-1c0,0.2,0,0.3,0,0.3
		S18.5,193.3,25.3,193.2z"/>
	<path class="st2" d="M42.7,175.9c-0.4-0.5-0.8-1.3-1.5-1.5c-0.1,2.6-1.3,7.2-4.8,6.9c0.4,0-0.3,1.8-0.4,1.9
		c-0.5,0.7-1.1,1.2-1.8,1.6c-2,1.1-4.1,3.1-6.5,3.2c-2.2,0.1-5.2,0.4-7.2-0.7c-1.2-0.7-1-2.1-1.3-3.3c0,0.1-0.1,0.2-0.1,0.3
		c-0.2,1.8-0.8,6.5-0.8,6.5s0.1,2.4,6.9,2.2s9.9-2.4,9.9-2.4l2.4-2.4l0.1-1.4l1.3-0.6c0,0,2.9-0.1,3.3-1.5c0.4-2.7,0.7-5.5,0.8-8.3
		C43,176.3,42.9,176.1,42.7,175.9z"/>
	<path class="st2" d="M62,24.9c-0.6-0.6-6-1.9-4.3-3.6c0.8-0.8,4,0.6,4.7,0.9c1.5,0.7,1.7,2.2,2,3.6c0.2,0.8,0.8,2.8-0.9,1.8
		C62.7,27,62.7,25.5,62,24.9z"/>
	<path class="st2" d="M76.1,26.3c0.9-1.2-0.3-2.3-0.2-3.5c0.1-0.9,0.9-1.1,1.1-1.8c0.5-1.9-2-1.5-2.3,0.2S74.3,25.5,76.1,26.3z"/>
	<text transform="matrix(1 0 0 1 164.6763 169.1828)" class="st25 st26 st27 st28">Au</text>
	<text transform="matrix(1 0 0 1 202.2263 169.1828)" class="st25 st26 st27 st28">t</text>
	<text transform="matrix(1 0 0 1 214.4963 169.1828)" class="st25 st26 st27 st28">o </text>
	<text transform="matrix(1 0 0 1 241.3463 169.1828)" class="st25 st26 st27 st28">R</text>
	<text transform="matrix(1 0 0 1 259.6063 169.1828)" class="st25 st26 st27 st28">epair &amp; Car Sales</text>
	<path class="st7" d="M177.9,70.1H191c3,0,6,1.2,8.1,3.4c0.5,0.5,1,1.1,1.4,1.7c0.4,0.6,0.7,1.2,1,1.9c0.7,1.8,1,3.7,0.9,5.7
		l-1,10.8c-0.3,2.2-1,4.3-2.3,6.1c-0.6,0.8-1.2,1.6-1.9,2.4l-0.4,0.3c0.5,0.5,0.9,1,1.2,1.6c0.4,0.7,0.7,1.4,1,2.1
		c0.6,1.6,0.8,3.4,0.6,5.1l-1,10.8c-0.3,2.2-1,4.3-2.3,6.1c-0.6,0.9-1.3,1.7-2,2.4c-0.5,0.5-1.1,1-1.7,1.4c-0.7,0.5-1.3,0.9-2.1,1.3
		c-1.8,0.9-3.8,1.4-5.8,1.5h-13.1v0L177.9,70.1L177.9,70.1z M184.9,77.9l-4.8,49h5.2c1.5,0,3-0.7,4-1.8c0.7-0.7,1.2-1.6,1.4-2.5
		c0.1-0.5,0.2-1,0.2-1.5l0.9-9.1c0.1-0.8,0.1-1.7-0.2-2.5c-0.2-0.6-0.5-1.2-0.9-1.7c-0.4-0.5-1-0.9-1.6-1.1
		c-0.8-0.3-1.6-0.4-2.4-0.4c-0.5-0.1-0.9-0.2-1.3-0.5c-0.4-0.2-0.7-0.5-1-0.9c-0.5-0.7-0.7-1.6-0.6-2.5c0.1-1.3,0.8-2.4,1.8-3.1
		c0.3-0.2,0.7-0.4,1-0.5c0.6-0.2,1.3-0.3,2-0.3c0.7-0.1,1.4-0.3,2-0.6c1.1-0.6,2.1-1.6,2.6-2.7c0.3-0.7,0.5-1.5,0.5-2.4l0.9-9.1
		c0.1-0.8,0.1-1.7-0.2-2.5c-0.2-0.6-0.5-1.1-0.8-1.6c-0.9-1-2.2-1.6-3.5-1.6L184.9,77.9z"/>
	<path class="st7" d="M219.1,70.1h0.4c3.2,0,6.3,1.3,8.5,3.6c2.2,2.5,3.3,5.8,3,9.1v0.3c-0.2,1.5-1.2,2.9-2.6,3.4
		c-0.5,0.2-1,0.3-1.6,0.3c-1.6,0-2.9-1-3.4-2.5c-0.1-0.7-0.2-1.5-0.1-2.2c0-0.7-0.2-1.5-0.6-2.1c-0.8-1.4-2.4-2.3-4-2.3
		c-3,0-5.4,2.4-5.6,5.4l-1,9.9c-0.3,1.8,0.5,3.7,2.1,4.6c1.1,0.6,2.3,0.9,3.5,0.7c1.1,0.1,2.3,0.4,3.3,0.7c1,0.4,2,1,2.8,1.6
		c1.2,1,2.2,2.1,3,3.4c1.2,2.1,1.7,4.5,1.5,6.9l-1,10.8c-0.8,7.1-6.8,12.5-13.9,12.7h-0.4c-3.2,0-6.3-1.3-8.5-3.6
		c-2.2-2.5-3.3-5.8-3-9.1v-0.3c0.2-1.5,1.2-2.9,2.6-3.5c0.5-0.2,1-0.3,1.6-0.3c1.6,0,3,1,3.4,2.5c0.1,0.7,0.2,1.5,0.1,2.2
		c0,0.8,0.3,1.6,0.7,2.3c0.9,1.3,2.4,2,3.9,2c1.4,0,2.8-0.6,3.8-1.5c1.1-1,1.7-2.4,1.8-3.8l1-9.9c0.3-1.8-0.5-3.7-2.1-4.6
		c-1.1-0.6-2.3-0.8-3.5-0.7c-1.1-0.1-2.3-0.4-3.3-0.7c-1-0.4-2-0.9-2.9-1.6c-1.2-0.9-2.2-2.1-3-3.4c-1.2-2.1-1.7-4.5-1.5-6.9l1-10.7
		c0.4-3.4,2-6.5,4.5-8.9C212.2,71.6,215.6,70.2,219.1,70.1z"/>
	<path class="st7" d="M236.3,70.1h7.7l0,0l-6.3,64.4l0,0H230v0L236.3,70.1L236.3,70.1z"/>
	<path class="st7" d="M247.3,70.1h13.1c2.1,0,4.1,0.6,5.9,1.7c0.8,0.5,1.5,1.1,2.2,1.7c0.5,0.5,1,1.1,1.4,1.7c0.4,0.6,0.7,1.2,1,1.9
		c0.7,1.8,1,3.7,0.9,5.7L268,122c-0.3,2.2-1,4.3-2.3,6.1c-0.6,0.9-1.3,1.7-2,2.4c-0.5,0.5-1.1,1-1.7,1.4c-2.3,1.7-5,2.6-7.9,2.7H241
		v0L247.3,70.1L247.3,70.1z M254.3,77.9l-4.8,49h5.2c1.5,0,3-0.7,4-1.8c0.7-0.7,1.2-1.6,1.4-2.5c0.1-0.5,0.2-1,0.2-1.5l3.6-37.5
		c0.1-0.8,0.1-1.7-0.2-2.5c-0.2-0.6-0.5-1.1-0.8-1.6c-0.9-1-2.2-1.6-3.5-1.6H254.3z"/>
	<path class="st7" d="M277.2,70.1h7.7h0l-6.3,64.4l0,0h-7.7v0L277.2,70.1L277.2,70.1z"/>
	<path class="st7" d="M300.8,70.1h0.5c2.1,0,4.1,0.6,5.9,1.7c0.8,0.5,1.5,1.1,2.2,1.7c0.5,0.5,1,1.1,1.4,1.7c0.4,0.6,0.7,1.2,1,1.9
		c0.7,1.8,1,3.7,0.9,5.7l-5,51.8l0,0H300v0l1.9-19.3h-10.4l-1.9,19.3v0H282l0,0l5-51.8c0.3-2.2,1-4.3,2.3-6.1c0.6-0.9,1.3-1.7,2-2.4
		c0.5-0.5,1.1-1,1.7-1.4c0.7-0.5,1.3-0.9,2.1-1.3C296.8,70.7,298.8,70.2,300.8,70.1z M294.7,82.9l-2.4,24.6h10.3l2.3-23.9
		c0.1-0.8,0.1-1.7-0.2-2.5c-0.2-0.6-0.5-1.1-0.8-1.6c-0.9-1-2.2-1.6-3.5-1.6h-0.2c-2.4,0.1-4.6,1.7-5.3,4
		C294.8,82.2,294.7,82.6,294.7,82.9z"/>
	<path class="st7" d="M316.7,70.1h7.7c0.3,0.8,0.6,1.6,0.7,2.4l9.1,34.4l1.3,4.9h0.1l4-41.7l0,0h7.6l0,0l-6.3,64.4l0,0h-7.6
		c-0.1-0.2-0.5-1.5-1.1-4.1l-9.3-35.2l-0.7-2.5h-0.1l-4,41.7l0,0h-7.6v0L316.7,70.1L316.7,70.1z"/>
	<path class="st7" d="M369.2,70.1h7.7c0.1,0.2,0.3,1.1,0.7,2.8l5.3,19.7l9.4-20.4l1-2.1h7.7l0,0l-6.3,64.4v0h-7.6v0l4-41.7h0
		l-10.3,22.4l-6-22.4l0,0l-4,41.7l0,0H363v0L369.2,70.1L369.2,70.1z"/>
	<path class="st7" d="M417.1,70.1h0.4c3.2,0,6.3,1.3,8.5,3.6c2.2,2.5,3.3,5.8,3,9.1l-3.8,39c-0.4,3.4-2,6.5-4.5,8.9
		c-2.6,2.4-5.9,3.8-9.5,3.9h-0.4c-3.2,0-6.3-1.3-8.5-3.6c-2.2-2.5-3.3-5.8-3-9.1l3.8-39c0.4-3.4,2-6.5,4.5-8.9
		C410.2,71.6,413.6,70.2,417.1,70.1z M410.9,83.3l-3.7,38.2c-0.3,2,0.7,4,2.5,4.9c0.7,0.3,1.4,0.4,2.1,0.5c3,0,5.4-2.4,5.7-5.4
		l3.7-38.2c0.3-2-0.7-4-2.5-4.9c-0.7-0.3-1.4-0.4-2.1-0.4c-1.4,0-2.8,0.6-3.8,1.5C411.6,80.4,411,81.8,410.9,83.3z"/>
	<path class="st7" d="M432.9,70.1h25.7l0,0l-0.7,7.6v0.1h-9l-5.5,56.7l-0.1,0h-7.6l-0.1,0l5.5-56.7h-9v-0.1L432.9,70.1L432.9,70.1z"
		/>
	<path class="st7" d="M473.6,70.1h0.4c3.2,0,6.3,1.3,8.5,3.6c2.2,2.5,3.3,5.8,3,9.1l-3.8,39c-0.8,7.1-6.8,12.5-13.9,12.7h-0.4
		c-3.2,0-6.3-1.3-8.5-3.6c-2.2-2.5-3.3-5.8-3-9.1l3.8-39c0.4-3.4,2-6.5,4.5-8.9C466.7,71.6,470,70.2,473.6,70.1z M467.3,83.3
		l-3.7,38.2c-0.3,2,0.7,4,2.5,4.9c0.7,0.3,1.4,0.4,2.1,0.5c1.4,0,2.8-0.6,3.8-1.5c1.1-1,1.7-2.4,1.8-3.8l3.7-38.2
		c0.3-2-0.7-4-2.5-4.9c-0.7-0.3-1.4-0.5-2.1-0.5c-1.4,0-2.8,0.6-3.8,1.5C468.1,80.4,467.5,81.8,467.3,83.3z"/>
	<path class="st7" d="M502.6,70.1h0.4c3.2,0,6.3,1.3,8.5,3.6c2.2,2.5,3.3,5.8,3,9.1l-1.6,13.6c-0.4,2.8-1.5,5.3-3.4,7.4
		c-1.5,1.7-3.4,3-5.4,3.9l5.6,26.7h-8c-0.1,0-5.5-25.9-5.5-25.9c-0.8-0.2-1.7-0.4-2.4-0.8l-2.3,26.6l-0.1,0h-7.6v0l5-51.7
		c0.3-3.2,1.2-12.7,1.2-12.7S499.2,70.1,502.6,70.1z M495.9,83.4L495,93.8c-0.2,2.3-0.5,5-0.5,5s4.5,0.3,4.9,0.3h0.5
		c1.5-0.1,2.8-0.7,3.8-1.8c0.9-1,1.5-2.2,1.6-3.5l0.9-10.4c0.3-2-0.7-4-2.5-4.9c-0.7-0.3-1.4-0.4-2.1-0.4c-1.5-0.1-5.2-0.2-5.2-0.2
		S496.1,81.9,495.9,83.4z"/>
	<path class="st7" d="M531.1,70.1h0.4c3.2,0,6.3,1.3,8.5,3.6c2.2,2.5,3.3,5.8,3,9.1v0.3c-0.2,1.5-1.2,2.9-2.7,3.4
		c-0.5,0.2-1,0.3-1.6,0.3c-1.6,0-3-1-3.4-2.5c-0.1-0.7-0.2-1.5-0.1-2.2c0-0.7-0.2-1.5-0.6-2.1c-0.8-1.4-2.4-2.3-4-2.3
		c-1.4,0-2.8,0.6-3.8,1.5c-1.1,1-1.7,2.4-1.8,3.8l-1,9.9c-0.3,1.8,0.5,3.7,2.1,4.6c1.1,0.6,2.3,0.9,3.5,0.7c1.1,0.1,2.3,0.4,3.3,0.7
		c1,0.4,2,0.9,2.9,1.6c1.2,0.9,2.2,2.1,3,3.4c1.2,2.1,1.7,4.5,1.5,6.9l-1,10.8c-0.8,7.1-6.8,12.5-13.9,12.7H525
		c-3.2,0-6.3-1.3-8.5-3.6c-2.2-2.5-3.3-5.8-3-9.1v-0.3c0.2-1.5,1.2-2.9,2.7-3.5c0.5-0.2,1-0.3,1.6-0.3c1.6,0,3,1,3.4,2.5
		c0.1,0.7,0.2,1.5,0.1,2.2c0,0.8,0.3,1.6,0.7,2.3c0.9,1.3,2.4,2,3.9,2c1.4,0,2.8-0.6,3.8-1.5c1.1-1,1.7-2.4,1.8-3.8l1-9.9
		c0.3-1.8-0.5-3.7-2.1-4.6c-1.1-0.6-2.3-0.8-3.5-0.7c-1.1-0.1-2.3-0.4-3.3-0.7c-1-0.4-2-0.9-2.9-1.6c-1.2-0.9-2.2-2.1-3-3.4
		c-1.2-2.1-1.7-4.5-1.5-6.9l1-10.8c0.4-3.4,2-6.5,4.5-8.9C524.3,71.6,527.6,70.2,531.1,70.1z"/>
	<path class="st7" d="M147.8,126.5c-2.7,0.5-5.5,0.5-8.2,0.1c2.2,5.2,5.7,8.3,10,8.3c6.1,0,12.5-6.5,16.8-16.2
		C160.9,122.7,154.6,125.3,147.8,126.5z"/>
	<path class="st7" d="M148.2,122.5c7.4-1.3,14.4-4.4,20.3-9.1c0.6-1.8,1.1-3.6,1.6-5.5c-5.9,4.5-12.7,7.6-19.9,9.1
		c-4.3,1-8.8,0.8-13-0.4c0.2,1.9,0.5,3.8,1,5.6C141.5,123,144.9,123.1,148.2,122.5z"/>
	<path class="st7" d="M159.3,68.3c-9.3,0.1-19,15-21.7,33.4c-0.5,3.5-0.7,7.1-0.7,10.7c4.3,1.3,8.9,1.5,13.4,0.5
		c7.6-1.6,14.7-4.9,20.7-9.8c0.1-0.6,0.2-1.1,0.3-1.7C174,83.2,168.6,68.3,159.3,68.3z M154.7,83.4c-2.3,4.6-6.1,7.9-8.6,7.2
		s-2.6-5-0.3-9.6s6.1-7.9,8.6-7.2S157,78.9,154.7,83.4L154.7,83.4z"/>
	<rect x="133.2" y="142.1" class="st29" width="409.2" height="2.9"/>
</g>
</svg>
