<svg width="43" height="23" viewBox="0 0 43 23" fill="none" xmlns="http://www.w3.org/2000/svg">
<path d="M21.2308 0C9.32562 0 0 5.05115 0 11.5C0 17.9488 9.32562 23 21.2308 23C33.1359 23 42.4615 17.9488 42.4615 11.5C42.4615 5.05115 33.1359 0 21.2308 0ZM19.0263 3.53846H21.344L20.608 7.07692H22.678C23.9908 7.07692 24.8718 7.26092 25.3743 7.71915C25.8644 8.17208 26.013 8.91515 25.8166 9.92715L24.8966 14.1538H22.54L23.3875 10.2456C23.4901 9.70954 23.4494 9.33623 23.2689 9.13985C23.0902 8.94346 22.6957 8.84615 22.1048 8.84615H20.2488L19.1289 14.1538H16.8077L19.0263 3.53846ZM8.84615 7.07692H13.5629C15.8116 7.07692 17.1739 8.58431 16.6414 10.833C16.0222 13.4462 14.3662 14.1538 11.316 14.1538H9.85815L9.39639 16.8077H7.05215L8.84615 7.07692ZM27.4231 7.07692H32.1398C34.3885 7.07692 35.7508 8.58431 35.2183 10.833C34.5991 13.4462 32.9413 14.1538 29.8929 14.1538H28.4351L27.9733 16.8077H25.6291L27.4231 7.07692ZM10.8542 8.84615L10.1872 12.3846H11.6999C13.0092 12.3846 14.2264 12.236 14.4298 10.2828C14.5059 9.52731 14.191 8.84615 12.6783 8.84615H10.8542ZM29.4312 8.84615L28.7642 12.3846H30.2768C31.5861 12.3846 32.8033 12.236 33.0068 10.2828C33.0828 9.52731 32.7697 8.84615 31.2552 8.84615H29.4312Z" fill="#EE334E"/>
</svg>
