<svg width="28" height="28" viewBox="0 0 28 28" fill="none" xmlns="http://www.w3.org/2000/svg">
<path d="M27.0129 16.3389C27.1564 15.5493 27.2334 14.7422 27.2334 13.9351C27.2334 12.1454 26.8833 10.4083 26.1938 8.77654C25.5287 7.19739 24.5731 5.77967 23.3584 4.56198C22.1539 3.35138 20.7261 2.38716 19.1544 1.72302C17.5232 1.03171 15.794 0.680787 14.0087 0.680787C13.1686 0.680787 12.325 0.761499 11.5059 0.919413C10.3726 0.317314 9.10967 0.00170616 7.82699 0C5.73723 0 3.76999 0.817646 2.29281 2.29853C1.56388 3.02553 0.985945 3.89017 0.592401 4.84246C0.198858 5.79476 -0.0024817 6.81581 2.30864e-05 7.8466C2.30864e-05 9.1801 0.343066 10.4925 0.983645 11.6506C0.854129 12.4016 0.78412 13.1701 0.78412 13.9351C0.78412 15.7248 1.13416 17.4618 1.82375 19.0936C2.48883 20.6728 3.44095 22.0905 4.6556 23.3082C5.87025 24.5259 7.28442 25.4804 8.85962 26.1471C10.4908 26.8384 12.22 27.1894 14.0052 27.1894C14.7823 27.1894 15.5594 27.1192 16.3225 26.9823C17.4952 27.6456 18.8183 28 20.173 28C22.2628 28 24.23 27.1859 25.7072 25.7015C27.1879 24.2206 28 22.2484 28 20.1534C28.0035 18.8199 27.6604 17.5039 27.0129 16.3389ZM14.0613 22.0554C9.36368 22.0554 7.26342 19.7393 7.26342 18.0058C7.26342 17.1144 7.918 16.4933 8.82111 16.4933C10.8304 16.4933 10.3123 19.3884 14.0613 19.3884C15.983 19.3884 17.0436 18.3426 17.0436 17.2723C17.0436 16.6302 16.7286 15.9143 15.4614 15.602L11.2819 14.5562C7.918 13.7105 7.30542 11.8857 7.30542 10.1732C7.30542 6.61486 10.6483 5.27785 13.7882 5.27785C16.6796 5.27785 20.089 6.88156 20.089 9.01516C20.089 9.93107 19.2979 10.461 18.3948 10.461C16.6796 10.461 16.9946 8.08171 13.5397 8.08171C11.8245 8.08171 10.8759 8.86076 10.8759 9.97318C10.8759 11.0856 12.2305 11.44 13.4067 11.7102L16.5011 12.398C19.8895 13.156 20.7471 15.1387 20.7471 17.0056C20.7471 19.8937 18.5313 22.0554 14.0613 22.0554Z" fill="white"/>
</svg>
