<svg width="22" height="22" viewBox="0 0 22 22" fill="none" xmlns="http://www.w3.org/2000/svg">
<path d="M21.2244 12.8377C21.3371 12.2173 21.3977 11.5832 21.3977 10.949C21.3977 9.5428 21.1226 8.17797 20.5808 6.89585C20.0582 5.65509 19.3074 4.54117 18.353 3.58441C17.4066 2.63322 16.2848 1.87563 15.0499 1.3538C13.7682 0.810628 12.4095 0.534904 11.0069 0.534904C10.3468 0.534904 9.68396 0.59832 9.04038 0.722396C8.14986 0.249318 7.1576 0.00134055 6.14978 0C4.50782 0 2.96213 0.642436 1.80149 1.80599C1.22877 2.3772 0.774671 3.05656 0.465458 3.80479C0.156245 4.55303 -0.00194991 5.35528 1.81393e-05 6.16518C1.81393e-05 7.21293 0.269552 8.24414 0.772864 9.15403C0.671101 9.74408 0.616094 10.3479 0.616094 10.949C0.616094 12.3552 0.891128 13.72 1.43294 15.0021C1.95551 16.2429 2.7036 17.3568 3.65797 18.3136C4.61234 19.2703 5.72347 20.0203 6.96113 20.5442C8.24278 21.0874 9.60145 21.3631 11.0041 21.3631C11.6147 21.3631 12.2253 21.3079 12.8248 21.2004C13.7462 21.7215 14.7858 22 15.8502 22C17.4922 22 19.0379 21.3603 20.1985 20.194C21.3619 19.0305 22 17.4809 22 15.8348C22.0027 14.7871 21.7332 13.7531 21.2244 12.8377ZM11.0481 17.3292C7.35718 17.3292 5.70697 15.5095 5.70697 14.1474C5.70697 13.447 6.22128 12.959 6.93087 12.959C8.50957 12.959 8.10252 15.2337 11.0481 15.2337C12.5581 15.2337 13.3914 14.4121 13.3914 13.5711C13.3914 13.0665 13.1439 12.5041 12.1483 12.2587L8.86436 11.437C6.22128 10.7725 5.73998 9.33876 5.73998 7.99323C5.73998 5.19739 8.36655 4.14689 10.8336 4.14689C13.1054 4.14689 15.7842 5.40694 15.7842 7.08334C15.7842 7.80298 15.1626 8.21933 14.453 8.21933C13.1054 8.21933 13.3529 6.34992 10.6383 6.34992C9.29066 6.34992 8.54532 6.96203 8.54532 7.83607C8.54532 8.71011 9.6097 8.9886 10.5338 9.2009L12.9651 9.74132C15.6274 10.3369 16.3013 11.8947 16.3013 13.3616C16.3013 15.6308 14.5603 17.3292 11.0481 17.3292Z" fill="#00AFF0"/>
</svg>
