<svg width="35" height="32" viewBox="0 0 35 32" fill="none" xmlns="http://www.w3.org/2000/svg">
<path d="M31.8182 0H3.18182C1.43182 0 0 1.44 0 3.2V22.4C0 24.16 1.43182 25.6 3.18182 25.6H14.3182L11.725 29.52C11.025 30.576 11.7727 32 13.0455 32H21.9545C23.2273 32 23.9909 30.576 23.275 29.52L20.6818 25.6H31.8182C33.5682 25.6 35 24.16 35 22.4V3.2C35 1.44 33.5682 0 31.8182 0ZM31.8182 19.2H3.18182V4.8C3.18182 3.92 3.89773 3.2 4.77273 3.2H30.2273C31.1023 3.2 31.8182 3.92 31.8182 4.8V19.2Z" fill="#00A651"/>
</svg>
