<svg width="65" height="65" viewBox="0 0 65 65" fill="none" xmlns="http://www.w3.org/2000/svg">
<path d="M48.5778 32.2969L32.8931 32.8786L32.3182 48.75L31.7434 32.8786L16.0587 32.2969L31.7434 31.7152L32.3182 15.8438L32.8931 31.7152L48.5778 32.2969Z" fill="#251A1A"/>
<path d="M7.42719 39.8125C3.32526 39.8125 -1.89344e-05 36.4476 -1.89839e-05 32.2969C-1.90334e-05 28.1461 3.32526 24.7813 7.42719 24.7813C11.5291 24.7813 18.6282 28.3492 18.6282 32.5C18.6282 36.6508 11.5291 39.8125 7.42719 39.8125Z" fill="#EE334E"/>
<ellipse cx="11.4416" cy="11.1719" rx="3.04687" ry="3.01103" transform="rotate(90 11.4416 11.1719)" fill="#EE334E"/>
<ellipse cx="53.1948" cy="53.0156" rx="3.04687" ry="3.01103" transform="rotate(90 53.1948 53.0156)" fill="#FCB131"/>
<ellipse cx="11.4416" cy="53.4219" rx="3.04687" ry="3.01103" transform="rotate(90 11.4416 53.4219)" fill="#0081C8"/>
<ellipse cx="52.7935" cy="11.5781" rx="3.04687" ry="3.01103" transform="rotate(90 52.7935 11.5781)" fill="#00A651"/>
<path d="M31.9168 65C27.8149 65 24.4896 61.6351 24.4896 57.4844C24.4896 53.3336 28.0156 45.5 32.1176 45.5C36.2195 45.5 39.3441 53.3336 39.3441 57.4844C39.3441 61.6351 36.0188 65 31.9168 65Z" fill="#0081C8"/>
<path d="M56.808 39.8125C52.7061 39.8125 46.2493 36.6508 46.2493 32.5C46.2493 28.3492 52.7061 24.7813 56.808 24.7813C60.91 24.7813 64.2352 28.1461 64.2352 32.2969C64.2352 36.4476 60.91 39.8125 56.808 39.8125Z" fill="#FCB131"/>
<path d="M32.1176 18.2C28.0156 18.2 24.4896 11.6664 24.4896 7.51562C24.4896 3.36486 27.8149 1.37484e-07 31.9168 8.85686e-08C36.0188 3.96535e-08 39.3441 3.36486 39.3441 7.51562C39.3441 11.6664 36.2195 18.2 32.1176 18.2Z" fill="#00A651"/>
</svg>
